<svg width="478" height="373" viewBox="0 0 478 373" fill="none" xmlns="http://www.w3.org/2000/svg">
<g clip-path="url(#clip0_6_920)">
<path d="M442.262 339.036C426.6 351.285 407.52 363.693 388.76 369.543C383.353 371.28 377.772 372.388 372.124 372.848C366.843 373.284 361.528 372.861 356.376 371.593C342.838 368.135 330.28 362.078 318.129 355.003C314.16 352.687 310.236 350.266 306.335 347.791C299.967 343.75 293.662 339.567 287.34 335.484C286.394 334.865 285.453 334.258 284.506 333.658H284.5C282.974 332.674 281.445 331.704 279.911 330.747C279.641 330.576 279.372 330.411 279.096 330.24C276.199 328.438 273.253 326.676 270.256 324.956C269.889 324.75 269.522 324.537 269.155 324.331C263.357 321.029 257.398 318.034 251.302 315.358C247.298 313.626 243.242 312.065 239.146 310.734H239.14C237.574 310.227 236.002 309.75 234.424 309.314C229.694 307.981 224.873 307.012 220.002 306.415C213.29 305.581 206.501 305.636 199.803 306.58C199.35 306.645 198.902 306.71 198.449 306.786C180.321 309.767 163.776 319.818 145.568 322.187C144.977 322.263 144.391 322.334 143.801 322.387C143.548 322.411 143.296 322.44 143.043 322.458C137.752 322.923 132.427 322.788 127.164 322.057C112.461 320.066 98.1417 313.886 85.2512 306.097C55.1159 287.886 30.6773 259.895 15.8191 227.48C13.2676 221.925 11.0023 216.235 9.03252 210.436C3.52518 194.353 0.492267 177.488 0.0429833 160.446C-1.35105 101.318 31.3657 41.9964 82.7327 15.2546C134.105 -11.4871 201.685 -2.64389 243.115 38.4379C268.248 63.3591 282.791 97.1295 301.705 127.3C320.619 157.465 347.502 186.28 382.175 190.676C399.838 192.914 418.322 188.584 435.251 194.216C444.625 197.339 452.622 203.313 459.065 210.925C463.396 216.09 467.02 221.838 469.838 228.01C471.903 232.472 473.579 237.113 474.846 241.879C475.082 242.757 475.3 243.635 475.512 244.512C483.945 279.885 470.469 316.967 442.262 339.036Z" fill="#F6EFDC"/>
<path d="M160.15 275.001H106.225C98.1455 275.001 91.5959 281.727 91.5959 290.025V290.025C91.5959 298.322 98.1455 305.048 106.225 305.048H160.15C168.23 305.048 174.779 298.322 174.779 290.025C174.779 281.727 168.23 275.001 160.15 275.001Z" fill="#3F3D56"/>
<path d="M143.8 297.389V322.387C138.261 322.937 132.678 322.827 127.164 322.057V297.389H143.8Z" fill="#3F3D56"/>
<path d="M199.803 306.58C199.35 306.645 198.902 306.71 198.449 306.786C180.321 309.767 163.776 319.818 145.567 322.187C144.976 322.263 144.391 322.334 143.8 322.387C143.548 322.411 143.296 322.44 143.043 322.458C138.597 317.986 134.151 313.226 129.975 308.294C127.709 305.626 125.517 302.904 123.458 300.146C118.111 293.029 113.579 285.712 110.585 278.524C110.889 275.078 108.8 267.107 107.802 261.003L107.796 260.997C107.372 258.434 107.142 256.207 107.355 254.776C108.571 246.516 115.14 247.464 117.159 239.369C118.98 237.816 120.92 236.416 122.959 235.18C123.297 234.974 123.641 234.768 123.997 234.562L145.912 219.008L154.287 227.445L167.034 240.288L180.848 254.198L169.122 266.364C169.122 266.364 178.921 277.965 190.377 293.43C193.452 297.584 196.648 302.02 199.803 306.58Z" fill="#2F2E41"/>
<path d="M388.76 297.389V369.543C383.353 371.28 377.772 372.388 372.124 372.848V297.389H388.76Z" fill="#3F3D56"/>
<path d="M410.273 291.498H356.348C348.268 291.498 341.719 298.224 341.719 306.521V306.521C341.719 314.818 348.268 321.544 356.348 321.544H410.273C418.352 321.544 424.902 314.818 424.902 306.521C424.902 298.224 418.352 291.498 410.273 291.498Z" fill="#3F3D56"/>
<path d="M279.096 330.24C276.199 328.438 273.252 326.676 270.256 324.956C269.889 324.749 269.522 324.537 269.155 324.331L271.128 323.465L276.452 321.114L276.503 321.091L276.561 321.291L279.096 330.24Z" fill="#FFB6B6"/>
<path d="M287.34 335.484C286.393 334.865 285.453 334.258 284.506 333.657H284.5C282.974 332.674 281.445 331.703 279.911 330.747C279.641 330.576 279.372 330.411 279.096 330.24C276.199 328.438 273.252 326.676 270.256 324.956C269.889 324.749 269.522 324.537 269.155 324.331C263.357 321.028 257.398 318.034 251.302 315.358C247.297 313.626 243.242 312.065 239.146 310.733H239.14L235.921 305.201L221.436 280.286L218.252 274.813C218.252 274.813 207.392 278.112 192.024 281.276C186.43 282.43 180.246 283.562 173.758 284.516C166.822 285.529 159.548 286.337 152.32 286.725C148.872 286.914 145.435 287.008 142.051 286.979C133.302 286.92 124.898 286.077 117.538 284.074C115.082 281.706 107.682 278.483 102.381 275.531H102.375C100.149 274.294 98.3022 273.11 97.3326 272.055C91.745 265.987 96.518 261.256 91.55 254.634C91.4831 252.205 91.604 249.774 91.9114 247.364C91.963 246.963 92.0147 246.557 92.0778 246.144L93.6439 218.831L105.278 217.252L122.982 214.848L142.16 212.244L144.271 229.224C144.271 229.224 159.204 228.446 178.124 228.705C208.511 229.13 249.173 232.24 254.681 245.591C255.197 246.845 255.713 248.112 256.23 249.379C257.457 252.407 258.673 255.451 259.878 258.511C264.244 269.587 268.409 280.769 272.212 291.338C274.576 297.913 276.802 304.253 278.85 310.186C280.496 314.958 282.022 319.471 283.416 323.624C284.69 327.418 285.843 330.912 286.87 334.046C287.03 334.535 287.185 335.018 287.34 335.484Z" fill="#2F2E41"/>
<path d="M180.317 169.998L143.57 137.947L167.478 113.098L184.158 141.155L245.985 153.744C247.845 152.307 250.071 151.457 252.392 151.297C254.714 151.136 257.03 151.674 259.06 152.842C261.089 154.011 262.744 155.761 263.821 157.879C264.899 159.996 265.354 162.39 265.129 164.769C264.905 167.147 264.012 169.407 262.559 171.273C261.106 173.139 259.155 174.531 256.945 175.278C254.735 176.025 252.361 176.096 250.112 175.482C247.864 174.867 245.838 173.594 244.282 171.818L180.317 169.998Z" fill="#A0616A"/>
<path d="M111.094 95.8242C106.848 110.013 147.293 143.852 147.293 143.852C147.743 140.446 170.674 169.818 172.234 167.158C176.668 159.598 181.547 140.91 186.666 138.522C189.593 137.156 172.8 118.17 172.8 118.17C172.8 118.17 164.233 106.531 152.923 91.7794C149.8 87.548 145.686 84.1968 140.963 82.0375C136.241 79.8783 131.063 78.9813 125.912 79.43C125.912 79.43 115.341 81.6358 111.094 95.8242Z" fill="#3F3D56"/>
<path d="M128.977 64.4141C142.703 64.4141 153.831 52.9864 153.831 38.8896C153.831 24.7927 142.703 13.365 128.977 13.365C115.251 13.365 104.123 24.7927 104.123 38.8896C104.123 52.9864 115.251 64.4141 128.977 64.4141Z" fill="#A0616A"/>
<path d="M141.404 81.2841C146.758 84.5533 149.961 90.5598 151.8 96.6721C155.204 107.988 157.253 119.688 157.902 131.513L159.844 166.915L183.896 242.296C163.051 260.41 84.6966 246.413 84.6966 246.413C84.6966 246.413 82.2914 245.589 84.6966 243.119C87.1019 240.649 89.4434 242.837 87.0382 240.367C84.633 237.897 86.291 240.649 87.0928 238.179C87.8945 235.709 87.0928 237.355 86.291 236.532C85.4893 235.709 92.4977 228.298 92.4977 228.298L86.0838 185.029L78.0664 97.7515C87.6873 85.4009 107.036 78.1203 107.036 78.1203L112.036 68.8784L137.033 70.9322L141.404 81.2841Z" fill="#3F3D56"/>
<path d="M149.465 25.3288C151.397 26.8085 152.828 28.873 153.557 31.2319C153.837 27.377 153.855 23.5068 153.61 19.6494C153.317 16.9388 151.459 16.3291 149.307 15.6226C147.364 14.9843 145.167 14.2633 144.576 11.6319C136.763 3.82656 123.163 4.22015 113.855 6.94279C108.733 8.44101 105.786 10.3659 105.523 11.4935L105.468 11.7257L105.26 11.8325C101.312 13.8596 100.544 20.2611 100.595 25.2742C100.691 34.7191 103.866 45.4462 105.655 46.3177C105.75 46.3638 105.774 46.3457 105.815 46.3106C108.508 44.0999 111.795 46.4786 113.239 47.7718C114.091 41.9015 116.833 36.4938 121.029 32.4122C125.224 28.3306 130.631 25.8106 136.384 25.2547C138.263 25.0681 140.127 24.7471 141.963 24.294C142.894 24.0466 143.851 23.9176 144.813 23.9099C146.468 23.8841 148.092 24.3792 149.465 25.3288Z" fill="#2F2E41"/>
<path d="M118.148 208.453L110.545 204.455C110.138 204.156 109.849 203.718 109.73 203.219C109.612 202.72 109.672 202.193 109.9 201.736C110.128 201.279 110.508 200.921 110.972 200.728C111.436 200.535 111.951 200.52 112.425 200.686L120.028 204.684C120.435 204.982 120.724 205.421 120.843 205.92C120.961 206.419 120.901 206.945 120.673 207.403C120.445 207.86 120.065 208.218 119.601 208.41C119.137 208.603 118.622 208.619 118.148 208.453Z" fill="#043419"/>
<path d="M92.5604 197.74L80.0536 149.923L113.475 143.425L111.678 176.247L155.591 222.683C157.916 222.585 160.218 223.185 162.217 224.407C164.216 225.63 165.825 227.424 166.849 229.57C167.872 231.716 168.265 234.121 167.981 236.493C167.696 238.865 166.745 241.1 165.245 242.926C163.745 244.753 161.759 246.091 159.531 246.779C157.303 247.466 154.928 247.473 152.696 246.799C150.464 246.124 148.471 244.797 146.961 242.979C145.45 241.162 144.487 238.932 144.19 236.562L92.5604 197.74Z" fill="#A0616A"/>
<path d="M76.6336 96.3099C65.2891 105.508 79.8498 156.955 79.8498 156.955C82.1042 154.414 84.7239 191.965 87.4794 190.687C95.3109 187.053 109.665 174.521 115.199 175.543C118.363 176.127 115.048 150.704 115.048 150.704C115.048 150.704 114.438 136.128 113.292 117.389C113.063 112.085 111.532 106.926 108.84 102.394C106.149 97.8611 102.384 94.1016 97.8968 91.4651C97.8968 91.4651 87.9781 87.1124 76.6336 96.3099Z" fill="#3F3D56"/>
<path d="M469.838 228.01L15.819 227.48C13.2676 221.925 11.0022 216.235 9.03247 210.436L459.065 210.925C463.396 216.09 467.02 221.838 469.838 228.01Z" fill="#3F3D56"/>
<path d="M325.231 351.627C322.885 352.793 320.518 353.918 318.129 355.002C314.16 352.687 310.236 350.266 306.335 347.791L320.803 341.263L325.231 351.627Z" fill="#FFB6B6"/>
<path d="M430.719 270.441C428.367 273.681 425.94 276.857 423.439 279.968C421.133 282.837 418.766 285.651 416.337 288.41C415.333 289.553 414.318 290.69 413.279 291.816C411.369 293.919 409.417 295.987 407.422 298.019C403.831 299.18 396.557 301.224 388.76 303.133C383.087 304.518 377.138 305.832 372.124 306.668C369.317 307.186 366.478 307.497 363.628 307.599C360.243 307.629 356.807 307.534 353.359 307.346C349.469 307.134 345.574 306.804 341.725 306.38C331.714 305.301 322.019 303.622 313.655 301.896C310.591 301.272 307.711 300.635 305.061 300.017C300.041 298.856 295.842 297.772 292.801 296.947C289.377 296.028 287.426 295.433 287.426 295.433L278.85 310.185L274.398 317.839L271.128 323.465L270.256 324.956C269.889 324.749 269.522 324.537 269.155 324.331C263.357 321.028 257.398 318.034 251.302 315.358C247.297 313.626 243.242 312.065 239.146 310.733H239.14C237.574 310.227 236.002 309.749 234.424 309.314C234.918 307.953 235.417 306.582 235.922 305.201C236.862 302.627 237.822 300.028 238.801 297.407C240.918 291.727 243.11 285.965 245.364 280.233C247.211 275.525 249.093 270.836 250.998 266.211C251.875 264.078 253.66 262.205 256.155 260.561C257.348 259.789 258.592 259.103 259.878 258.511C267.021 255.17 277.542 252.996 289.136 251.6C290.094 251.488 291.058 251.376 292.027 251.27C301.625 250.233 311.807 249.697 321.331 249.449C326.098 249.326 330.699 249.279 334.978 249.273C336.361 249.273 337.705 249.277 339.011 249.285H339.017C342.545 249.302 345.792 249.355 348.649 249.414C349.205 249.426 349.745 249.444 350.273 249.455H350.278C350.634 249.461 350.984 249.473 351.328 249.479C357.575 249.644 361.408 249.844 361.408 249.844L362.893 237.873L363.197 235.457L363.484 233.159V233.153L363.519 232.865L363.754 232.859L367.884 232.776L402.603 232.081L421.569 231.698L418.563 244.931L413.601 266.765C414.105 270.217 430.891 267.513 430.719 270.441Z" fill="#2F2E41"/>
<path d="M329.511 349.447C328.094 350.189 326.666 350.92 325.231 351.627C322.885 352.793 320.518 353.919 318.129 355.003C314.159 352.687 310.236 350.266 306.335 347.791C299.967 343.75 293.662 339.567 287.34 335.484C286.394 334.865 285.453 334.258 284.506 333.657H284.5C281.896 329.687 279.24 325.551 276.561 321.291C276.521 321.232 276.486 321.173 276.452 321.114C275.763 320.03 275.079 318.938 274.398 317.839C270.113 310.946 265.804 303.758 261.622 296.417L272.212 291.338L291.901 281.9L295.297 280.274L305.061 300.017L313.769 317.627L315.708 321.544L329.511 349.447Z" fill="#2F2E41"/>
<path d="M332.478 254.662L382.675 204.947L396.588 164.49L376.066 155.325C365.525 165.695 354.131 197.995 354.131 197.995L319.588 243.126C319.319 243.221 319.051 243.322 318.785 243.442C317.23 244.146 315.877 245.251 314.859 246.65C313.84 248.048 313.19 249.692 312.971 251.424C312.752 253.156 312.972 254.916 313.609 256.535C314.246 258.154 315.28 259.577 316.609 260.666C317.938 261.755 319.518 262.474 321.197 262.752C322.875 263.031 324.595 262.86 326.191 262.257C327.786 261.653 329.203 260.637 330.305 259.307C331.406 257.976 332.155 256.376 332.478 254.662Z" fill="#FFB8B8"/>
<path d="M370.292 159.843L396.323 168.33L396.421 168.313C406.109 166.646 414.149 150.395 419.187 137.056C420.844 132.656 420.813 127.774 419.1 123.396C417.387 119.019 414.119 115.473 409.958 113.475C406.878 112.023 403.464 111.484 400.102 111.919C396.74 112.355 393.564 113.748 390.932 115.94L377.565 127.158L370.292 159.843Z" fill="#043419"/>
<path d="M430.615 271.038L430.767 270.83C438.888 259.768 427.78 232.374 426.101 228.401L433.653 226.104L432.336 211.337L431.702 204.753L437.574 199.027L437.594 198.88L441.632 169.368L446.915 149.836C448.907 142.451 448.949 134.656 447.037 127.249C445.126 119.843 441.329 113.092 436.038 107.69L425.237 96.6774L412.297 75.8765L390.601 75.3013L382.799 89.5346C375.544 91.0553 369.038 95.1417 364.414 101.082C359.791 107.022 357.344 114.44 357.498 122.043L358.233 159.935L350.448 206.883L350.229 215.411L342.588 223.692L344.001 232.064L338.286 234.402L335.489 246.298C334.42 247.67 327.368 256.826 327.303 259.378C327.294 259.761 327.56 260.139 328.141 260.566C332.706 263.92 358.223 271.189 369.707 266.819C381.94 262.168 429.882 270.903 430.365 270.992L430.615 271.038Z" fill="#043419"/>
<path d="M399.554 68.9247C415.429 68.9247 428.297 55.7086 428.297 39.4059C428.297 23.1031 415.429 9.88708 399.554 9.88708C383.68 9.88708 370.811 23.1031 370.811 39.4059C370.811 55.7086 383.68 68.9247 399.554 68.9247Z" fill="#FFB8B8"/>
<path d="M396.048 69.3197C400.499 69.3909 404.948 69.0716 409.346 68.3652C413.705 67.4548 423.458 60.1152 426.177 55.6985C428.196 52.417 429.488 47.2926 430.216 43.5719C431.197 38.6483 431.159 33.568 430.106 28.6601C429.053 23.7523 427.009 19.1262 424.104 15.0815C422.988 13.3897 421.447 12.0392 419.645 11.1728C419.485 11.1087 419.321 11.0518 419.155 11.0032C416.529 10.2936 414.169 8.79409 412.379 6.69718C412.031 6.27305 411.655 5.87515 411.252 5.50657C409.229 3.75289 406.83 2.51588 404.252 1.89665C400.09 0.752862 394.068 1.88823 386.352 5.27448C382.476 6.9758 378.236 6.36009 374.975 5.63354C374.792 5.59725 374.603 5.61079 374.427 5.67281C374.25 5.73482 374.093 5.84316 373.97 5.98704C372.582 7.32484 370.753 8.07368 368.85 8.08305C367.684 8.13562 366.461 9.79323 364.983 11.9548C364.648 12.4455 364.256 13.0182 363.974 13.3665L363.936 12.6973L363.277 13.4438C362.24 14.6171 361.51 16.0407 361.153 17.582C360.796 19.1234 360.826 20.7323 361.238 22.2589C361.649 23.7856 362.431 25.1804 363.509 26.3134C364.587 27.4465 365.927 28.2809 367.404 28.7389C368.576 29.0593 369.778 29.2559 370.989 29.3257C371.723 29.3935 372.482 29.4637 373.21 29.5933C375.544 30.0843 377.715 31.1886 379.51 32.7984C381.305 34.4083 382.663 36.4686 383.451 38.7783C383.638 39.3122 383.941 39.7949 384.338 40.1893C384.735 40.5837 385.215 40.8791 385.74 41.0527C386.266 41.2264 386.824 41.2737 387.37 41.1909C387.916 41.1082 388.437 40.8976 388.891 40.5754C389.649 39.9694 390.538 39.5606 391.483 39.3839C392.428 39.2072 393.401 39.2679 394.318 39.5606C395.11 40.0132 395.727 40.7319 396.065 41.5962C396.476 42.559 397.156 43.3745 398.02 43.9384C400.974 45.5027 401.178 52.4323 400.117 58.2091C399.094 63.7773 397.073 67.8054 395.201 68.0046C393.76 68.1577 393.595 68.2628 393.49 68.5245L393.397 68.7588L393.559 68.978C394.355 69.2743 395.204 69.3909 396.048 69.3197Z" fill="#2F2E41"/>
<path d="M377.429 150.918L366.347 128.226C350.26 129.355 318.333 148.456 318.333 148.456L257.926 161.61C256.136 160.903 254.197 160.693 252.304 161.001C250.41 161.309 248.629 162.124 247.139 163.363C245.65 164.603 244.504 166.224 243.819 168.062C243.133 169.901 242.931 171.893 243.233 173.837C243.535 175.781 244.33 177.609 245.539 179.138C246.748 180.666 248.328 181.84 250.119 182.542C251.91 183.244 253.849 183.449 255.742 183.137C257.635 182.824 259.414 182.005 260.901 180.762L337.743 175.105L377.429 150.918Z" fill="#FFB8B8"/>
<path d="M372.96 154.644L401.904 132.554L407.002 113.685C407.99 109.977 407.948 106.059 406.882 102.374C405.815 98.6891 403.766 95.384 400.966 92.8322C397.149 89.3993 392.204 87.5833 387.132 87.7513C382.06 87.9194 377.24 90.0589 373.646 93.7374C362.753 104.903 350.33 120.479 352.999 131.28L353.026 131.39L372.96 154.644Z" fill="#043419"/>
<path d="M337.129 213.729H259.683V224.334H337.129V213.729Z" fill="white"/>
<path d="M139.211 213.729H61.7648V224.334H139.211V213.729Z" fill="white"/>
<path d="M148.255 162.731V213.224C148.255 213.867 148.504 214.484 148.947 214.939C149.39 215.394 149.991 215.65 150.618 215.65H223.477C224.104 215.65 224.704 215.394 225.147 214.939C225.59 214.484 225.84 213.867 225.84 213.224V162.731C225.839 162.088 225.589 161.472 225.146 161.017C224.703 160.563 224.103 160.307 223.477 160.307H150.618C149.992 160.307 149.391 160.563 148.948 161.017C148.506 161.472 148.256 162.088 148.255 162.731Z" fill="#3F3D56"/>
<path d="M149.964 163.359V212.601C149.964 212.945 150.098 213.274 150.334 213.517C150.571 213.76 150.892 213.897 151.227 213.898H222.87C223.205 213.897 223.526 213.76 223.763 213.517C224 213.274 224.133 212.945 224.133 212.601V163.359C224.133 163.015 224 162.685 223.764 162.441C223.527 162.197 223.206 162.06 222.87 162.059H151.227C150.891 162.06 150.57 162.197 150.334 162.441C150.097 162.685 149.964 163.015 149.964 163.359Z" fill="#043419"/>
<path d="M146.731 223.071C146.864 223.243 147.034 223.382 147.227 223.477C147.42 223.571 147.632 223.62 147.846 223.619H225.861C226.074 223.619 226.285 223.57 226.478 223.475C226.67 223.381 226.84 223.244 226.974 223.073C227.109 222.903 227.204 222.704 227.255 222.491C227.305 222.279 227.308 222.057 227.264 221.842L226.053 215.935C226.003 215.694 225.895 215.47 225.739 215.283C225.583 215.095 225.384 214.951 225.159 214.864C224.997 214.798 224.824 214.765 224.65 214.765H149.052C148.878 214.765 148.705 214.798 148.542 214.864C148.318 214.951 148.119 215.095 147.963 215.283C147.807 215.47 147.699 215.694 147.649 215.935L146.438 221.842C146.394 222.057 146.398 222.278 146.449 222.491C146.5 222.703 146.596 222.902 146.731 223.071Z" fill="#2F2E41"/>
<path d="M221.973 217.31H223.816C223.97 217.31 224.096 217.181 224.096 217.022V216.117C224.096 215.958 223.97 215.829 223.816 215.829H221.973C221.818 215.829 221.693 215.958 221.693 216.117V217.022C221.693 217.181 221.818 217.31 221.973 217.31Z" fill="#3F3D56"/>
<path d="M217.167 217.31H219.01C219.165 217.31 219.29 217.181 219.29 217.022V216.117C219.29 215.958 219.165 215.829 219.01 215.829H217.167C217.013 215.829 216.887 215.958 216.887 216.117V217.022C216.887 217.181 217.013 217.31 217.167 217.31Z" fill="#3F3D56"/>
<path d="M212.362 217.31H214.204C214.359 217.31 214.484 217.181 214.484 217.022V216.117C214.484 215.958 214.359 215.829 214.204 215.829H212.362C212.207 215.829 212.082 215.958 212.082 216.117V217.022C212.082 217.181 212.207 217.31 212.362 217.31Z" fill="#3F3D56"/>
<path d="M207.556 217.31H209.399C209.553 217.31 209.679 217.181 209.679 217.022V216.117C209.679 215.958 209.553 215.829 209.399 215.829H207.556C207.401 215.829 207.276 215.958 207.276 216.117V217.022C207.276 217.181 207.401 217.31 207.556 217.31Z" fill="#3F3D56"/>
<path d="M202.75 217.31H204.593C204.748 217.31 204.873 217.181 204.873 217.022V216.117C204.873 215.958 204.748 215.829 204.593 215.829H202.75C202.596 215.829 202.47 215.958 202.47 216.117V217.022C202.47 217.181 202.596 217.31 202.75 217.31Z" fill="#3F3D56"/>
<path d="M197.945 217.31H199.787C199.942 217.31 200.068 217.181 200.068 217.022V216.117C200.068 215.958 199.942 215.829 199.787 215.829H197.945C197.79 215.829 197.665 215.958 197.665 216.117V217.022C197.665 217.181 197.79 217.31 197.945 217.31Z" fill="#3F3D56"/>
<path d="M193.139 217.31H194.982C195.136 217.31 195.262 217.181 195.262 217.022V216.117C195.262 215.958 195.136 215.829 194.982 215.829H193.139C192.984 215.829 192.859 215.958 192.859 216.117V217.022C192.859 217.181 192.984 217.31 193.139 217.31Z" fill="#3F3D56"/>
<path d="M188.333 217.31H190.176C190.331 217.31 190.456 217.181 190.456 217.022V216.117C190.456 215.958 190.331 215.829 190.176 215.829H188.333C188.179 215.829 188.053 215.958 188.053 216.117V217.022C188.053 217.181 188.179 217.31 188.333 217.31Z" fill="#3F3D56"/>
<path d="M183.528 217.31H185.37C185.525 217.31 185.651 217.181 185.651 217.022V216.117C185.651 215.958 185.525 215.829 185.37 215.829H183.528C183.373 215.829 183.248 215.958 183.248 216.117V217.022C183.248 217.181 183.373 217.31 183.528 217.31Z" fill="#3F3D56"/>
<path d="M178.722 217.31H180.565C180.719 217.31 180.845 217.181 180.845 217.022V216.117C180.845 215.958 180.719 215.829 180.565 215.829H178.722C178.567 215.829 178.442 215.958 178.442 216.117V217.022C178.442 217.181 178.567 217.31 178.722 217.31Z" fill="#3F3D56"/>
<path d="M173.916 217.31H175.759C175.914 217.31 176.039 217.181 176.039 217.022V216.117C176.039 215.958 175.914 215.829 175.759 215.829H173.916C173.762 215.829 173.636 215.958 173.636 216.117V217.022C173.636 217.181 173.762 217.31 173.916 217.31Z" fill="#3F3D56"/>
<path d="M169.111 217.31H170.953C171.108 217.31 171.233 217.181 171.233 217.022V216.117C171.233 215.958 171.108 215.829 170.953 215.829H169.111C168.956 215.829 168.831 215.958 168.831 216.117V217.022C168.831 217.181 168.956 217.31 169.111 217.31Z" fill="#3F3D56"/>
<path d="M164.305 217.31H166.148C166.302 217.31 166.428 217.181 166.428 217.022V216.117C166.428 215.958 166.302 215.829 166.148 215.829H164.305C164.15 215.829 164.025 215.958 164.025 216.117V217.022C164.025 217.181 164.15 217.31 164.305 217.31Z" fill="#3F3D56"/>
<path d="M159.499 217.31H161.342C161.497 217.31 161.622 217.181 161.622 217.022V216.117C161.622 215.958 161.497 215.829 161.342 215.829H159.499C159.345 215.829 159.219 215.958 159.219 216.117V217.022C159.219 217.181 159.345 217.31 159.499 217.31Z" fill="#3F3D56"/>
<path d="M154.694 217.31H156.536C156.691 217.31 156.816 217.181 156.816 217.022V216.117C156.816 215.958 156.691 215.829 156.536 215.829H154.694C154.539 215.829 154.414 215.958 154.414 216.117V217.022C154.414 217.181 154.539 217.31 154.694 217.31Z" fill="#3F3D56"/>
<path d="M149.888 217.31H151.731C151.885 217.31 152.011 217.181 152.011 217.022V216.117C152.011 215.958 151.885 215.829 151.731 215.829H149.888C149.733 215.829 149.608 215.958 149.608 216.117V217.022C149.608 217.181 149.733 217.31 149.888 217.31Z" fill="#3F3D56"/>
<path d="M222.03 219.777H223.873C224.027 219.777 224.153 219.648 224.153 219.49V218.584C224.153 218.425 224.027 218.297 223.873 218.297H222.03C221.875 218.297 221.75 218.425 221.75 218.584V219.49C221.75 219.648 221.875 219.777 222.03 219.777Z" fill="#3F3D56"/>
<path d="M217.224 219.777H219.067C219.222 219.777 219.347 219.648 219.347 219.49V218.584C219.347 218.425 219.222 218.297 219.067 218.297H217.224C217.07 218.297 216.944 218.425 216.944 218.584V219.49C216.944 219.648 217.07 219.777 217.224 219.777Z" fill="#3F3D56"/>
<path d="M212.419 219.777H214.261C214.416 219.777 214.541 219.648 214.541 219.49V218.584C214.541 218.425 214.416 218.297 214.261 218.297H212.419C212.264 218.297 212.139 218.425 212.139 218.584V219.49C212.139 219.648 212.264 219.777 212.419 219.777Z" fill="#3F3D56"/>
<path d="M207.613 219.777H209.456C209.61 219.777 209.736 219.648 209.736 219.49V218.584C209.736 218.425 209.61 218.297 209.456 218.297H207.613C207.458 218.297 207.333 218.425 207.333 218.584V219.49C207.333 219.648 207.458 219.777 207.613 219.777Z" fill="#3F3D56"/>
<path d="M202.807 219.777H204.65C204.805 219.777 204.93 219.648 204.93 219.49V218.584C204.93 218.425 204.805 218.297 204.65 218.297H202.807C202.652 218.297 202.527 218.425 202.527 218.584V219.49C202.527 219.648 202.652 219.777 202.807 219.777Z" fill="#3F3D56"/>
<path d="M198.001 219.777H199.844C199.999 219.777 200.124 219.648 200.124 219.49V218.584C200.124 218.425 199.999 218.297 199.844 218.297H198.001C197.847 218.297 197.721 218.425 197.721 218.584V219.49C197.721 219.648 197.847 219.777 198.001 219.777Z" fill="#3F3D56"/>
<path d="M193.196 219.777H195.039C195.193 219.777 195.319 219.648 195.319 219.49V218.584C195.319 218.425 195.193 218.297 195.039 218.297H193.196C193.041 218.297 192.916 218.425 192.916 218.584V219.49C192.916 219.648 193.041 219.777 193.196 219.777Z" fill="#3F3D56"/>
<path d="M188.39 219.777H190.233C190.388 219.777 190.513 219.648 190.513 219.49V218.584C190.513 218.425 190.388 218.297 190.233 218.297H188.39C188.235 218.297 188.11 218.425 188.11 218.584V219.49C188.11 219.648 188.235 219.777 188.39 219.777Z" fill="#3F3D56"/>
<path d="M183.584 219.777H185.427C185.582 219.777 185.707 219.648 185.707 219.49V218.584C185.707 218.425 185.582 218.297 185.427 218.297H183.584C183.43 218.297 183.304 218.425 183.304 218.584V219.49C183.304 219.648 183.43 219.777 183.584 219.777Z" fill="#3F3D56"/>
<path d="M178.779 219.777H180.622C180.776 219.777 180.902 219.648 180.902 219.49V218.584C180.902 218.425 180.776 218.297 180.622 218.297H178.779C178.624 218.297 178.499 218.425 178.499 218.584V219.49C178.499 219.648 178.624 219.777 178.779 219.777Z" fill="#3F3D56"/>
<path d="M173.973 219.777H175.816C175.971 219.777 176.096 219.648 176.096 219.49V218.584C176.096 218.425 175.971 218.297 175.816 218.297H173.973C173.818 218.297 173.693 218.425 173.693 218.584V219.49C173.693 219.648 173.818 219.777 173.973 219.777Z" fill="#3F3D56"/>
<path d="M169.167 219.777H171.01C171.165 219.777 171.29 219.648 171.29 219.49V218.584C171.29 218.425 171.165 218.297 171.01 218.297H169.167C169.013 218.297 168.887 218.425 168.887 218.584V219.49C168.887 219.648 169.013 219.777 169.167 219.777Z" fill="#3F3D56"/>
<path d="M164.362 219.777H166.204C166.359 219.777 166.484 219.648 166.484 219.49V218.584C166.484 218.425 166.359 218.297 166.204 218.297H164.362C164.207 218.297 164.082 218.425 164.082 218.584V219.49C164.082 219.648 164.207 219.777 164.362 219.777Z" fill="#3F3D56"/>
<path d="M159.556 219.777H161.399C161.553 219.777 161.679 219.648 161.679 219.49V218.584C161.679 218.425 161.553 218.297 161.399 218.297H159.556C159.401 218.297 159.276 218.425 159.276 218.584V219.49C159.276 219.648 159.401 219.777 159.556 219.777Z" fill="#3F3D56"/>
<path d="M154.75 219.777H156.593C156.748 219.777 156.873 219.648 156.873 219.49V218.584C156.873 218.425 156.748 218.297 156.593 218.297H154.75C154.596 218.297 154.47 218.425 154.47 218.584V219.49C154.47 219.648 154.596 219.777 154.75 219.777Z" fill="#3F3D56"/>
<path d="M149.945 219.777H151.787C151.942 219.777 152.068 219.648 152.068 219.49V218.584C152.068 218.425 151.942 218.297 151.787 218.297H149.945C149.79 218.297 149.665 218.425 149.665 218.584V219.49C149.665 219.648 149.79 219.777 149.945 219.777Z" fill="#3F3D56"/>
<path d="M182.143 222.738H200.805C200.96 222.738 201.085 222.61 201.085 222.451V221.545C201.085 221.387 200.96 221.258 200.805 221.258H182.143C181.988 221.258 181.863 221.387 181.863 221.545V222.451C181.863 222.61 181.988 222.738 182.143 222.738Z" fill="#3F3D56"/>
</g>
<defs>
<clipPath id="clip0_6_920">
<rect width="478" height="373" fill="white"/>
</clipPath>
</defs>
</svg>
