<svg width="652" height="411" viewBox="0 0 652 411" fill="none" xmlns="http://www.w3.org/2000/svg">
<g clip-path="url(#clip0_6_919)">
<path d="M501.828 310.441C528.646 243.307 520.534 168.344 485.945 110.77L123.872 160.967L470.853 88.5623C324.615 -94.0296 39.9847 27.0814 67.4217 257.617L501.828 310.441Z" fill="#E6E6E6"/>
<path d="M517.796 236.23H56.5103V380.053H517.796V236.23Z" fill="#043419"/>
<path d="M185.158 218.691C189.297 221.909 190.81 222.948 191.692 222.816C234.394 235.267 196.959 249.859 176.211 225.09L185.158 218.691Z" fill="#FFB8B8"/>
<path d="M44.2485 350.236V379.469L65.2687 378.3L59.4302 347.898L44.2485 350.236Z" fill="#FFB8B8"/>
<path d="M161.029 350.236V379.469L140.008 378.3L145.848 347.898L161.029 350.236Z" fill="#FFB8B8"/>
<path d="M96.7998 199.397L128.331 198.228C201.068 274.58 173.561 257.166 171.54 361.929L133.002 350.236L141.177 277.74C141.181 277.737 143.333 276.301 141.544 276.268C130.356 280.118 122.192 232.451 97.9676 237.984C70.4015 236.664 65.9139 277.609 54.7586 277.74L62.9333 350.236L24.3956 361.929C20.0807 246.805 -1.06648 272.812 67.6046 198.228L96.7998 199.397Z" fill="#2F2E41"/>
<path d="M50.0873 370.114C50.0873 370.114 45.416 360.76 39.577 365.437C33.7379 370.114 19.7242 384.146 19.7242 384.146C19.7242 384.146 -14.1423 399.347 6.87828 408.701C27.8989 418.056 45.416 395.839 45.416 395.839C65.4379 391.659 76.9865 388.982 66.3686 367.115C60.3404 369.727 51.8096 372.751 50.0873 370.114Z" fill="#2F2E41"/>
<path d="M155.19 370.114C155.19 370.114 159.861 360.76 165.701 365.437C171.54 370.114 185.553 384.146 185.553 384.146C185.553 384.146 219.42 399.347 198.399 408.701C177.379 418.056 159.861 395.839 159.861 395.839C139.84 391.659 128.291 388.982 138.909 367.115C144.937 369.727 153.468 372.751 155.19 370.114Z" fill="#2F2E41"/>
<path d="M128.331 67.2668C126.594 96.3753 86.9174 93.8126 86.2896 67.2666C88.0263 38.1583 127.703 40.721 128.331 67.2668Z" fill="#FFB8B8"/>
<path d="M97.9675 82.4677C108.184 113.384 84.0638 96.5521 117.82 121.054L130.666 95.33C130.666 95.33 121.324 91.8221 122.492 78.9598L97.9675 82.4677Z" fill="#FFB8B8"/>
<path d="M161.029 100.007L126.217 92.0511C127.196 113.068 104.796 108.838 100.887 98.2662L67.6044 117.547C81.5741 169.642 78.0337 171.791 59.4297 205.244C52.3297 211.735 62.9479 215.456 72.1917 211.904C79.2421 207.547 82.8227 203.675 90.3773 204.66C126.075 212.103 155.793 213.859 160.496 210.951C162.179 208.54 160.447 100.426 161.029 100.007Z" fill="#575A89"/>
<path d="M151.687 102.346C152.855 102.346 158.87 99.5137 158.87 99.5137C176.372 99.2183 188.117 217.094 189.057 220.445L177.379 228.63L158.694 180.689L151.687 102.346Z" fill="#575A89"/>
<path d="M69.9401 239.153C70.5372 243.566 71.5533 293.124 89.2834 269.974C91.6096 253.085 83.701 248.043 81.6182 236.815L69.9401 239.153Z" fill="#FFB8B8"/>
<path d="M74.6113 117.547L71.0331 115.56C61.4402 115.245 64.4635 140.67 60.4049 159.29C57.0893 180.982 58.0333 204.9 61.9234 236.878C62.2636 248.612 83.2546 241.22 86.2894 240.323C86.2894 240.323 79.2825 192.382 82.786 184.196C86.2894 176.011 74.6113 117.547 74.6113 117.547Z" fill="#575A89"/>
<path d="M127.412 46.8633C124.169 41.5903 119.093 37.7046 113.16 35.9542L108.803 39.4445L110.497 35.3735C109.072 35.1559 107.63 35.0724 106.19 35.1243L102.27 40.1713L103.892 35.2972C87.0694 37.1058 77.1162 56.4423 85.8498 69.9754C87.197 65.83 88.8322 61.9402 90.1794 57.7947C91.2382 57.9393 92.3113 57.9445 93.3715 57.8103L95.0106 53.9809L95.4685 57.6484C100.549 57.2051 108.084 56.2322 112.9 55.3407L112.432 52.5273L115.234 54.8652C116.71 54.5251 117.586 54.2167 117.513 53.9809C121.095 59.7629 124.645 63.456 128.227 69.2379C129.586 61.0823 131.987 54.3031 127.412 46.8633Z" fill="#2F2E41"/>
<path d="M490.186 253.58H388.312V301.966H490.186V253.58Z" fill="white"/>
<path d="M470.921 263.715H407.577V269.516H470.921V263.715Z" fill="#E6E6E6"/>
<path d="M470.921 274.872H407.577V280.674H470.921V274.872Z" fill="#E6E6E6"/>
<path d="M470.921 286.029H407.577V291.831H470.921V286.029Z" fill="#E6E6E6"/>
<path d="M299.596 265.073L296.282 259.327L292.969 253.58L289.655 259.327L286.341 265.073H289.901V281.715H296.035V265.073H299.596Z" fill="white"/>
<path d="M524.134 383.484C539.204 383.484 551.42 371.252 551.42 356.163C551.42 341.075 539.204 328.843 524.134 328.843C509.064 328.843 496.848 341.075 496.848 356.163C496.848 371.252 509.064 383.484 524.134 383.484Z" fill="#3F3D56"/>
<path d="M529.095 368.271C535.774 368.271 541.188 362.85 541.188 356.163C541.188 349.476 535.774 344.055 529.095 344.055C522.416 344.055 517.002 349.476 517.002 356.163C517.002 362.85 522.416 368.271 529.095 368.271Z" fill="#E6E6E6"/>
<path d="M506.925 375.257L566.458 400.093L564.598 405.992L530.335 402.111L472.353 376.343L504.599 380.069L506.925 375.257Z" fill="#3F3D56"/>
<path d="M559.549 398.974L633.591 155.783L651.622 123.722L651.685 123.413C651.744 123.13 653.067 116.428 649.811 111.575C648.99 110.369 647.93 109.345 646.696 108.567C645.463 107.789 644.082 107.273 642.641 107.053C632.69 105.185 610.427 104.264 609.484 104.226L609.306 104.219L609.13 104.243C608.522 104.326 594.294 106.408 591.078 118.848L575.598 147.056L575.537 147.257L505.462 377.929L509.319 379.104L579.333 148.632L594.864 120.329L594.927 120.069C597.201 110.708 608.074 108.518 609.52 108.267C611.795 108.364 632.719 109.297 641.898 111.02C642.809 111.144 643.685 111.457 644.47 111.938C645.254 112.418 645.931 113.057 646.456 113.813C648.463 116.788 647.961 121.169 647.784 122.321L629.863 154.186L629.799 154.396L555.693 397.797L559.549 398.974Z" fill="#3F3D56"/>
<path d="M570.375 170.378L569.658 174.35L623.133 184.02L623.85 180.049L570.375 170.378Z" fill="#3F3D56"/>
<path d="M560.388 203.409L559.582 207.363L612.675 218.213L613.481 214.259L560.388 203.409Z" fill="#3F3D56"/>
<path d="M542.605 262.482L541.496 266.362L593.332 281.213L594.441 277.333L542.605 262.482Z" fill="#3F3D56"/>
<path d="M577.661 376.981L579.13 373.222L528.817 353.496L526.346 326.711L573.306 344.273L588.52 366.314L591.836 364.02L575.902 340.935L521.742 320.68L525.032 356.347L577.661 376.981Z" fill="#3F3D56"/>
<path d="M595.139 409.562C610.209 409.562 622.425 397.331 622.425 382.242C622.425 367.153 610.209 354.921 595.139 354.921C580.07 354.921 567.853 367.153 567.853 382.242C567.853 397.331 580.07 409.562 595.139 409.562Z" fill="#3F3D56"/>
<path d="M602.271 395.592C608.949 395.592 614.363 390.171 614.363 383.484C614.363 376.797 608.949 371.376 602.271 371.376C595.592 371.376 590.178 376.797 590.178 383.484C590.178 390.171 595.592 395.592 602.271 395.592Z" fill="#E6E6E6"/>
</g>
<defs>
<clipPath id="clip0_6_919">
<rect width="652" height="411" fill="white"/>
</clipPath>
</defs>
</svg>
