<svg width="1088" height="605" viewBox="0 0 1088 605" fill="none" xmlns="http://www.w3.org/2000/svg">
<path d="M544 529.038C844.443 529.038 1088 545.827 1088 566.538C1088 587.248 844.443 604.038 544 604.038C243.557 604.038 0 587.248 0 566.538C0 545.827 243.557 529.038 544 529.038Z" fill="#3F3D56"/>
<path d="M1088 565.299C1088 545.986 844.443 479.038 544 479.038C243.557 479.038 0 545.986 0 565.299C0 584.613 243.557 548.98 544 548.98C844.443 548.98 1088 584.613 1088 565.299Z" fill="#3F3D56"/>
<path opacity="0.1" d="M1088 566.108C1088 552.882 848.248 507.038 552.5 507.038C256.752 507.038 17 552.882 17 566.108C17 579.334 256.752 554.933 552.5 554.933C848.248 554.933 1088 579.334 1088 566.108Z" fill="black"/>
<path d="M482 8C483.657 8 485 6.65685 485 5C485 3.34315 483.657 2 482 2C480.343 2 479 3.34315 479 5C479 6.65685 480.343 8 482 8Z" fill="#F2F2F2"/>
<path d="M399 111C400.657 111 402 109.657 402 108C402 106.343 400.657 105 399 105C397.343 105 396 106.343 396 108C396 109.657 397.343 111 399 111Z" fill="#F2F2F2"/>
<path d="M602 128C603.105 128 604 127.105 604 126C604 124.895 603.105 124 602 124C600.895 124 600 124.895 600 126C600 127.105 600.895 128 602 128Z" fill="#F2F2F2"/>
<path d="M182 173C183.105 173 184 172.105 184 171C184 169.895 183.105 169 182 169C180.895 169 180 169.895 180 171C180 172.105 180.895 173 182 173Z" fill="#F2F2F2"/>
<path d="M614 4C615.105 4 616 3.10457 616 2C616 0.89543 615.105 0 614 0C612.895 0 612 0.89543 612 2C612 3.10457 612.895 4 614 4Z" fill="#F2F2F2"/>
<path d="M738 100C739.105 100 740 99.1046 740 98C740 96.8954 739.105 96 738 96C736.895 96 736 96.8954 736 98C736 99.1046 736.895 100 738 100Z" fill="#F2F2F2"/>
<path d="M860 252C861.105 252 862 251.105 862 250C862 248.895 861.105 248 860 248C858.895 248 858 248.895 858 250C858 251.105 858.895 252 860 252Z" fill="#F2F2F2"/>
<path d="M306 24.2596H303.24V21.4996H301.76V24.2596H299V25.7406H301.76V28.4996H303.24V25.7406H306V24.2596Z" fill="#F2F2F2"/>
<path d="M848 327.26H845.24V324.5H843.76V327.26H841V328.741H843.76V331.5H845.24V328.741H848V327.26Z" fill="#F2F2F2"/>
<path d="M568 475C568 508.137 553.225 499 535 499C516.775 499 502 508.137 502 475C502 441.863 535 379 535 379C535 379 568 441.863 568 475Z" fill="#FF6584"/>
<path opacity="0.1" d="M550 487.679C550 502.741 543.284 498.588 535 498.588C526.716 498.588 520 502.741 520 487.679C520 472.616 535 444.042 535 444.042C535 444.042 550 472.616 550 487.679Z" fill="black"/>
<path d="M572 508H498C493.029 508 489 512.029 489 517C489 521.971 493.029 526 498 526H572C576.971 526 581 521.971 581 517C581 512.029 576.971 508 572 508Z" fill="#2F2E41"/>
<path d="M572 490H498C493.029 490 489 494.029 489 499C489 503.971 493.029 508 498 508H572C576.971 508 581 503.971 581 499C581 494.029 576.971 490 572 490Z" fill="#2F2E41"/>
<path d="M137 393.566C137 448.909 171.719 493.692 214.626 493.692L137 393.566Z" fill="#3F3D56"/>
<path d="M214.626 493.692C214.626 437.727 253.371 392.441 301.252 392.441L214.626 493.692Z" fill="#043419"/>
<path d="M165.125 398.583C165.125 451.153 187.265 493.692 214.626 493.692L165.125 398.583Z" fill="#043419"/>
<path d="M214.626 493.692C214.626 422.181 259.409 364.315 314.752 364.315L214.626 493.692Z" fill="#3F3D56"/>
<path d="M198.295 494.398C198.295 494.398 209.304 494.059 212.622 491.696C215.94 489.334 229.556 486.513 230.379 490.302C231.202 494.091 246.923 509.146 234.494 509.246C222.065 509.347 205.615 507.31 202.304 505.293C198.993 503.276 198.295 494.398 198.295 494.398Z" fill="#A8A8A8"/>
<path opacity="0.2" d="M234.716 507.928C222.287 508.028 205.837 505.992 202.526 503.975C200.004 502.438 198.999 496.927 198.663 494.384C198.43 494.394 198.295 494.398 198.295 494.398C198.295 494.398 198.993 503.276 202.304 505.294C205.615 507.311 222.065 509.347 234.494 509.247C238.082 509.218 239.321 507.941 239.253 506.051C238.755 507.193 237.386 507.906 234.716 507.928Z" fill="black"/>
<path d="M721.429 430.099C721.429 468.128 745.286 498.901 774.769 498.901L721.429 430.099Z" fill="#3F3D56"/>
<path d="M774.77 498.901C774.77 460.445 801.393 429.326 834.295 429.326L774.77 498.901Z" fill="#043419"/>
<path d="M740.755 433.547C740.755 469.67 755.969 498.901 774.77 498.901L740.755 433.547Z" fill="#043419"/>
<path d="M774.77 498.901C774.77 449.762 805.542 410 843.571 410L774.77 498.901Z" fill="#3F3D56"/>
<path d="M763.548 499.386C763.548 499.386 771.112 499.153 773.392 497.53C775.672 495.906 785.028 493.968 785.594 496.571C786.16 499.175 796.962 509.521 788.422 509.589C779.881 509.658 768.578 508.259 766.302 506.873C764.027 505.487 763.548 499.386 763.548 499.386Z" fill="#A8A8A8"/>
<path opacity="0.2" d="M788.574 508.683C780.034 508.752 768.73 507.353 766.455 505.967C764.722 504.911 764.031 501.124 763.8 499.376C763.64 499.383 763.548 499.386 763.548 499.386C763.548 499.386 764.027 505.487 766.302 506.873C768.578 508.259 779.881 509.658 788.422 509.589C790.887 509.569 791.739 508.692 791.692 507.393C791.349 508.178 790.409 508.668 788.574 508.683Z" fill="black"/>
<path d="M893.813 521.737C893.813 521.737 905.173 520.008 908.313 517.146C911.454 514.284 925.203 509.658 926.53 513.479C927.857 517.3 946.024 530.926 933.163 532.586C920.303 534.245 903.011 534.195 899.328 532.52C895.646 530.846 893.813 521.737 893.813 521.737Z" fill="#A8A8A8"/>
<path opacity="0.2" d="M933.228 531.192C920.368 532.851 903.075 532.801 899.393 531.127C896.589 529.851 894.858 524.268 894.192 521.676C893.952 521.716 893.813 521.737 893.813 521.737C893.813 521.737 895.646 530.846 899.328 532.52C903.011 534.195 920.303 534.245 933.164 532.586C936.876 532.107 937.999 530.63 937.692 528.68C937.319 529.925 935.991 530.835 933.228 531.192Z" fill="black"/>
<path d="M614.26 520.915C614.26 520.915 623.847 519.456 626.497 517.04C629.148 514.625 640.752 510.721 641.872 513.946C642.991 517.171 658.323 528.67 647.47 530.071C636.616 531.471 622.022 531.429 618.915 530.016C615.807 528.602 614.26 520.915 614.26 520.915Z" fill="#A8A8A8"/>
<path opacity="0.2" d="M647.524 528.894C636.671 530.295 622.077 530.253 618.969 528.839C616.603 527.763 615.142 523.051 614.579 520.864C614.377 520.897 614.26 520.915 614.26 520.915C614.26 520.915 615.807 528.602 618.915 530.016C622.022 531.429 636.616 531.471 647.47 530.071C650.603 529.666 651.551 528.42 651.292 526.774C650.977 527.826 649.856 528.593 647.524 528.894Z" fill="black"/>
<path d="M122.389 516.128C122.389 516.128 129.853 514.992 131.916 513.112C133.979 511.231 143.013 508.192 143.885 510.702C144.757 513.213 156.693 522.165 148.243 523.256C139.794 524.346 128.432 524.313 126.013 523.213C123.594 522.112 122.389 516.128 122.389 516.128Z" fill="#A8A8A8"/>
<path opacity="0.2" d="M148.286 522.34C139.836 523.43 128.475 523.397 126.055 522.297C124.213 521.459 123.076 517.791 122.638 516.088C122.48 516.114 122.389 516.128 122.389 516.128C122.389 516.128 123.594 522.112 126.013 523.213C128.432 524.313 139.794 524.346 148.243 523.256C150.682 522.941 151.42 521.97 151.219 520.69C150.973 521.508 150.101 522.106 148.286 522.34Z" fill="black"/>
<path opacity="0.1" d="M383.696 504.356C383.696 534.577 341.572 525.229 289.996 525.229C238.42 525.229 196.922 534.577 196.922 504.356C196.922 474.136 239.04 467.563 290.616 467.563C342.193 467.563 383.696 474.136 383.696 504.356Z" fill="black"/>
<path d="M383.696 496.915C383.696 527.136 341.572 517.788 289.996 517.788C238.42 517.788 196.922 527.136 196.922 496.915C196.922 466.695 239.04 460.122 290.616 460.122C342.193 460.122 383.696 466.695 383.696 496.915Z" fill="#3F3D56"/>
<path d="M391.726 358.459C389.241 359.729 386.879 361.226 384.67 362.931C382.451 364.649 380.753 366.949 379.763 369.574C378.52 366.664 377.504 363.661 376.725 360.594C374.973 355.089 372.9 349.691 370.517 344.429C374.429 342.939 377.82 340.338 380.274 336.946C385.073 341.725 390.008 346.708 392.396 353.045C392.807 354.137 394.004 355.301 394.282 356.279C394.675 357.662 392.775 357.882 391.726 358.459Z" fill="#FFBFC5"/>
<path d="M436.892 474.945C442.134 476.601 447.023 479.217 451.31 482.66C451.633 482.862 451.867 483.179 451.965 483.547C452.074 484.378 450.965 484.716 450.16 484.948C447.794 485.63 446.282 487.853 444.539 489.593C442.796 491.333 439.995 492.698 437.962 491.309C437.428 490.9 436.962 490.409 436.581 489.854L427.991 478.642C430.904 477.014 433.966 475.67 437.136 474.628" fill="#F1F1F1"/>
<path d="M452.333 477.278C453.47 478.438 453.964 480.107 455.08 481.288C455.831 482.004 456.688 482.599 457.621 483.052L464.193 486.669C465.203 487.266 466.266 487.768 467.369 488.169C468.607 488.515 469.867 488.778 471.14 488.957C472.962 489.298 474.744 489.824 476.459 490.526C477.747 491.053 479.184 491.964 479.178 493.356C479.125 494.037 478.848 494.68 478.39 495.185C475.798 498.449 471.212 499.173 467.067 499.611C458.096 500.56 448.915 501.271 440.145 499.156C438.433 498.841 436.815 498.14 435.413 497.108C432.767 494.915 432.24 490.92 433.228 487.629C433.508 486.366 434.254 485.256 435.318 484.521C436.707 483.725 438.438 484.095 440.034 483.971C441.732 483.74 443.377 483.216 444.897 482.423C445.899 481.97 447.054 481.388 447.269 480.194C447.468 479.088 446.168 477.98 446.442 476.992C447.048 474.801 451.285 476.208 452.333 477.278Z" fill="#575A89"/>
<path opacity="0.1" d="M452.333 477.278C453.47 478.438 453.964 480.107 455.08 481.288C455.831 482.004 456.688 482.599 457.621 483.052L464.193 486.669C465.203 487.266 466.266 487.768 467.369 488.169C468.607 488.515 469.867 488.778 471.14 488.957C472.962 489.298 474.744 489.824 476.459 490.526C477.747 491.053 479.184 491.964 479.178 493.356C479.125 494.037 478.848 494.68 478.39 495.185C475.798 498.449 471.212 499.173 467.067 499.611C458.096 500.56 448.915 501.271 440.145 499.156C438.433 498.841 436.815 498.14 435.413 497.108C432.767 494.915 432.24 490.92 433.228 487.629C433.508 486.366 434.254 485.256 435.318 484.521C436.707 483.725 438.438 484.095 440.034 483.971C441.732 483.74 443.377 483.216 444.897 482.423C445.899 481.97 447.054 481.388 447.269 480.194C447.468 479.088 446.168 477.98 446.442 476.992C447.048 474.801 451.285 476.208 452.333 477.278Z" fill="black"/>
<path d="M467.581 513.176C468.502 513.782 469.422 514.389 470.341 514.998C471.188 515.449 471.885 516.136 472.348 516.976C472.946 518.383 472.137 519.975 471.236 521.211C468.535 524.905 464.847 527.762 460.596 529.457C459.122 530.07 457.564 530.459 455.975 530.609C455.611 530.665 455.239 530.619 454.9 530.474C454.059 530.03 454.18 528.826 454.169 527.875C454.14 525.113 452.055 522.871 450.18 520.843C448.306 518.815 446.395 516.317 446.825 513.589C447.214 511.983 448.037 510.515 449.204 509.345C450.242 508.042 451.46 506.893 452.821 505.932C454.771 504.656 455.459 505.343 457.294 506.512C460.739 508.708 464.168 510.929 467.581 513.176Z" fill="#F1F1F1"/>
<path d="M458.609 526.628C459.36 526.818 460.145 526.828 460.9 526.657C461.656 526.487 462.361 526.141 462.958 525.647C464.143 524.648 465.105 523.412 465.781 522.017C466.453 520.776 467.037 519.49 467.53 518.168C468.107 516.62 468.642 514.908 470.002 513.969C471.651 512.83 473.973 513.276 475.649 514.374C477.229 515.607 478.679 516.997 479.979 518.522C483.46 521.768 487.68 524.117 492.274 525.363C496.848 526.598 501.485 527.59 506.165 528.333C507.1 528.458 508.005 528.749 508.838 529.193C510.719 530.34 511.346 532.902 510.823 535.042C510.159 537.154 508.967 539.062 507.361 540.586C506.097 542.085 504.529 543.299 502.761 544.147C501.266 544.693 499.691 544.991 498.1 545.03C490.394 545.554 482.652 544.948 475.121 543.23C472.354 542.479 469.539 541.917 466.696 541.549C464.963 541.396 463.218 541.444 461.482 541.326C458.031 541.09 454.657 540.2 451.538 538.703C450.779 538.425 450.138 537.894 449.725 537.199C449.5 536.559 449.454 535.87 449.59 535.206L450.741 525.126C450.842 524.248 451.134 523.158 452.006 523.021C452.837 522.891 453.44 523.741 453.963 524.399C454.976 525.613 456.364 526.455 457.908 526.793C459.452 527.13 461.065 526.945 462.492 526.265" fill="#575A89"/>
<path d="M391.866 399.523C396.924 398.953 402.79 398.858 406.21 402.628C408.308 404.939 408.944 408.177 409.67 411.213C410.805 416.311 412.649 421.224 415.15 425.809C416.759 428.649 418.709 431.315 419.943 434.337C421.208 437.434 421.674 440.787 422.413 444.049C425.378 456.942 432.616 468.454 442.95 476.714C441.125 481.677 435.848 484.511 430.715 485.779C429.627 486.241 428.415 486.323 427.275 486.012C426.134 485.701 425.132 485.016 424.428 484.066C422.026 481.474 419.79 478.734 417.731 475.861C410.332 465.981 402.82 455.892 398.789 444.225C397.375 440.131 395.961 435.352 391.982 433.641C389.712 432.665 387.117 432.97 384.682 433.382C379.239 434.305 373.883 435.681 368.669 437.494C363.109 439.428 356.744 441.808 351.656 438.849C348.612 437.078 346.799 433.678 346.131 430.22C345.628 426.729 345.623 423.184 346.117 419.691C346.151 418.111 346.53 416.557 347.228 415.139C347.932 414.079 348.835 413.165 349.887 412.448C354.431 408.997 359.484 406.274 364.866 404.379C370.007 402.566 375.532 401.952 380.896 401.056C384.538 400.448 388.195 399.937 391.866 399.523Z" fill="#575A89"/>
<path opacity="0.1" d="M391.866 399.523C396.924 398.953 402.79 398.858 406.21 402.628C408.308 404.939 408.944 408.177 409.67 411.213C410.805 416.311 412.649 421.224 415.15 425.809C416.759 428.649 418.709 431.315 419.943 434.337C421.208 437.434 421.674 440.787 422.413 444.049C425.378 456.942 432.616 468.454 442.95 476.714C441.125 481.677 435.848 484.511 430.715 485.779C429.627 486.241 428.415 486.323 427.275 486.012C426.134 485.701 425.132 485.016 424.428 484.066C422.026 481.474 419.79 478.734 417.731 475.861C410.332 465.981 402.82 455.892 398.789 444.225C397.375 440.131 395.961 435.352 391.982 433.641C389.712 432.665 387.117 432.97 384.682 433.382C379.239 434.305 373.883 435.681 368.669 437.494C363.109 439.428 356.744 441.808 351.656 438.849C348.612 437.078 346.799 433.678 346.131 430.22C345.628 426.729 345.623 423.184 346.117 419.691C346.151 418.111 346.53 416.557 347.228 415.139C347.932 414.079 348.835 413.165 349.887 412.448C354.431 408.997 359.484 406.274 364.866 404.379C370.007 402.566 375.532 401.952 380.896 401.056C384.538 400.448 388.195 399.937 391.866 399.523Z" fill="black"/>
<path d="M420.82 435.996C423.167 437.18 425.321 438.71 427.212 440.536C429.163 442.835 430.645 445.494 431.574 448.362C431.99 449.32 432.246 450.339 432.33 451.379C432.367 451.9 432.286 452.423 432.092 452.908C431.899 453.393 431.597 453.827 431.211 454.179C430.274 454.78 429.163 455.052 428.054 454.95C426.588 454.962 425.122 454.924 423.656 454.835C422.766 454.829 421.884 454.661 421.052 454.342C420.291 453.953 419.604 453.433 419.023 452.806C416.445 450.412 414.334 447.561 412.796 444.397C411.734 442.056 409.986 436.66 411.657 434.223C413.379 431.713 419 434.963 420.82 435.996Z" fill="#FFBFC5"/>
<path d="M349.907 435.16C357.388 437.557 365.35 437.83 373.171 438.561C386.325 439.791 399.32 442.36 411.953 446.227C414.591 446.87 417.076 448.027 419.265 449.632C420.956 451.194 422.388 453.016 423.507 455.028C425.562 458.159 427.423 461.413 429.08 464.773C430.501 467.809 431.584 470.99 432.905 474.071C437.346 484.383 444.368 493.378 453.295 500.187C454.927 501.428 456.743 502.779 457.163 504.785C457.351 506.076 457.14 507.394 456.558 508.563C454.63 513.054 450.627 516.321 446.427 518.822C444.621 519.897 442.634 520.988 441.746 522.894C435.361 520.258 430.616 514.639 426.666 508.973C422.715 503.308 419.211 497.22 414.149 492.521C411.918 490.451 409.384 488.649 407.63 486.163C404.953 482.368 404.229 477.177 400.625 474.248C396.995 471.298 391.788 471.7 387.133 472.156C363.291 474.491 339.266 474.231 315.48 471.381C310.535 470.788 305.454 470.033 301.171 467.492C296.887 464.951 293.552 460.184 294.159 455.241C294.727 450.614 298.581 446.945 302.877 445.134C307.173 443.322 311.921 442.998 316.554 442.476C327.922 441.367 339.118 438.911 349.907 435.16Z" fill="#575A89"/>
<path d="M281.511 444.768C282.099 440.845 283.622 437.129 284.578 433.279C285.058 430.856 285.664 428.46 286.396 426.102C286.42 426.035 286.447 425.97 286.472 425.904C286.715 425.884 286.951 425.811 287.163 425.69C287.374 425.569 287.557 425.403 287.697 425.203C287.828 424.86 287.863 424.487 287.801 424.125C287.782 423.741 287.793 423.356 287.835 422.974C289.4 420.35 291.109 417.816 292.956 415.383C296.195 410.794 299 405.917 301.801 401.048C304.097 397.056 306.396 393.056 308.297 388.862C309.722 385.717 310.921 382.467 312.496 379.394C318.104 368.457 328.185 360.403 339.027 354.613C349.427 349.06 360.67 345.317 371.605 340.902C371.886 341.178 372.141 341.479 372.368 341.802C378.276 349.877 378.913 360.49 381.344 370.196C382.326 374.115 383.638 378.021 383.636 382.061C383.632 388.024 380.782 393.572 377.95 398.819C375.418 403.835 372.428 408.605 369.02 413.071C367.346 415.142 365.504 417.071 363.821 419.134C356.929 427.586 352.948 437.978 349.079 448.175C346.839 454.079 343.178 459.315 340.715 465.13C339.769 467.364 339.222 469.773 338.034 471.889C336.845 474.005 334.776 475.866 332.35 475.877C331.64 475.857 330.935 475.747 330.253 475.548C321.469 473.288 314.112 467.477 306.812 462.094C305.509 461.133 304.199 460.181 302.832 459.314C301.451 458.439 300.017 457.653 298.584 456.867C297.498 456.272 296.412 455.677 295.326 455.082C291.766 453.132 288.202 451.179 284.494 449.529C283.379 449.081 282.308 448.531 281.294 447.886C281.283 446.843 281.356 445.8 281.511 444.768Z" fill="#043419"/>
<path d="M396.359 357.788C407.537 357.788 416.599 348.727 416.599 337.549C416.599 326.371 407.537 317.309 396.359 317.309C385.181 317.309 376.12 326.371 376.12 337.549C376.12 348.727 385.181 357.788 396.359 357.788Z" fill="#FFBFC5"/>
<path d="M409.974 328.079C410.463 328.934 411.204 329.618 412.096 330.037C412.988 330.457 413.987 330.591 414.958 330.422C415.924 330.228 416.837 329.832 417.639 329.261C418.44 328.689 419.112 327.954 419.61 327.104C420.594 325.395 421.183 323.488 421.333 321.522C421.491 320.767 421.497 319.988 421.352 319.231C421.208 318.473 420.915 317.752 420.49 317.108C419.735 316.377 418.869 315.771 417.923 315.313C416.619 314.499 415.524 313.39 414.726 312.076C414.159 311.141 413.753 310.118 413.244 309.15C411.403 305.653 407.821 302.81 403.871 302.939C401.974 303.001 400.166 303.722 398.296 304.05C392.021 305.15 385.201 301.83 379.38 304.419C377.948 305.116 376.616 306.004 375.422 307.059C373.784 308.41 372.209 309.834 370.697 311.33C369.384 312.449 368.391 313.895 367.817 315.522C367.026 318.491 368.907 321.809 367.71 324.64C367.301 325.45 366.812 326.218 366.251 326.932C364.93 328.868 366.365 336.429 366.219 338.769C366.051 339.915 366.342 341.08 367.029 342.012C367.984 343.076 369.59 343.169 371.019 343.186L373.647 343.218C374.039 343.245 374.434 343.204 374.813 343.098C375.328 342.868 375.782 342.519 376.135 342.078C378.32 339.776 378.794 332.245 381.968 332.273C382.45 332.246 382.929 332.37 383.337 332.628C383.913 333.049 384.082 333.824 384.489 334.409C384.955 334.959 385.586 335.345 386.288 335.509C386.991 335.673 387.727 335.607 388.388 335.32C389.7 334.714 390.84 333.792 391.708 332.637C392.573 331.485 393.621 330.483 394.812 329.672C396.503 328.686 398.415 328.256 400.061 327.141C401.437 326.209 402.22 324.857 403.455 323.828C403.949 323.402 404.569 323.152 405.22 323.115C405.871 323.079 406.515 323.259 407.053 323.626C409.001 324.643 409.086 326.309 409.974 328.079Z" fill="#2F2E41"/>
<path opacity="0.1" d="M363.21 363.739C367.937 363.067 372.754 363.454 377.313 364.872C378.835 365.219 380.21 366.034 381.244 367.203C381.832 368.089 382.215 369.095 382.364 370.147C383.294 374.987 382.697 379.997 380.657 384.483C380.512 384.707 380.415 384.96 380.374 385.224C380.334 385.489 380.35 385.758 380.421 386.016C380.627 386.328 380.895 386.594 381.209 386.797C381.493 387.07 381.716 387.4 381.863 387.766C382.01 388.131 382.078 388.524 382.062 388.918C382.046 389.312 381.947 389.698 381.771 390.05C381.594 390.403 381.346 390.714 381.04 390.963C380.663 391.239 380.168 391.478 380.094 391.94C380.013 392.443 380.486 392.837 380.854 393.189C381.393 393.717 381.79 394.372 382.01 395.094C382.229 395.815 382.263 396.58 382.109 397.319C381.91 397.913 381.774 398.527 381.703 399.149C381.779 399.91 382.003 400.65 382.363 401.325C382.978 402.849 383.188 404.506 382.973 406.134C382.777 406.904 382.758 407.709 382.917 408.487C383.139 409.002 383.441 409.479 383.811 409.9C385.266 411.862 385.585 415.144 383.475 416.375C384.378 416.838 385.114 417.572 385.58 418.474C386.046 419.375 386.219 420.4 386.075 421.405C387.335 420.732 388.863 421.592 389.912 422.561C390.962 423.53 392.035 424.715 393.461 424.786C394.456 424.836 395.504 424.32 396.412 424.73C397.792 425.352 397.745 427.59 399.102 428.261C400.293 428.85 401.951 427.889 402.965 428.746C403.319 429.045 403.498 429.506 403.839 429.818C404.61 430.524 405.812 430.224 406.856 430.182C408.093 430.217 409.299 430.575 410.356 431.22C411.412 431.865 412.281 432.774 412.878 433.859C414.043 436.043 414.746 438.444 414.943 440.911C415.21 442.252 415.183 443.635 414.865 444.965C414.694 445.626 414.332 446.223 413.825 446.681C413.317 447.138 412.686 447.436 412.01 447.537C399.589 448.341 387.332 445.363 375.238 442.418C371.686 441.554 368.073 440.541 365.11 438.399C362.419 436.452 360.439 433.699 358.509 430.995C354.949 426.011 351.368 420.988 348.82 415.418C345.542 408.25 344.08 400.407 342.647 392.656C342.153 390.578 341.978 388.437 342.126 386.306C342.556 383.814 343.509 381.441 344.922 379.343C346.631 376.563 348.521 373.897 350.581 371.365C353.711 367.358 358.206 364.643 363.21 363.739Z" fill="black"/>
<path d="M364.029 362.92C368.756 362.248 373.573 362.635 378.132 364.053C379.654 364.4 381.029 365.215 382.063 366.385C382.651 367.27 383.033 368.276 383.183 369.328C384.113 374.168 383.516 379.178 381.476 383.664C381.33 383.889 381.234 384.141 381.193 384.405C381.153 384.67 381.168 384.94 381.24 385.197C381.446 385.509 381.714 385.775 382.028 385.978C382.312 386.251 382.535 386.581 382.682 386.947C382.829 387.312 382.897 387.705 382.881 388.099C382.865 388.493 382.766 388.879 382.589 389.231C382.413 389.584 382.164 389.895 381.859 390.144C381.482 390.42 380.986 390.659 380.913 391.121C380.832 391.624 381.305 392.018 381.672 392.37C382.212 392.898 382.609 393.553 382.828 394.275C383.048 394.996 383.082 395.762 382.928 396.5C382.729 397.094 382.593 397.708 382.521 398.33C382.597 399.092 382.822 399.831 383.182 400.506C383.797 402.03 384.007 403.687 383.792 405.316C383.596 406.086 383.577 406.89 383.736 407.668C383.958 408.183 384.259 408.66 384.63 409.081C386.084 411.043 386.404 414.325 384.293 415.556C385.196 416.019 385.932 416.753 386.399 417.655C386.865 418.556 387.038 419.581 386.894 420.586C388.154 419.913 389.682 420.773 390.731 421.742C391.781 422.711 392.853 423.896 394.28 423.967C395.275 424.017 396.323 423.501 397.231 423.911C398.611 424.534 398.564 426.771 399.921 427.442C401.112 428.031 402.77 427.07 403.784 427.927C404.137 428.226 404.317 428.687 404.658 428.999C405.428 429.705 406.631 429.405 407.674 429.363C408.912 429.398 410.118 429.756 411.174 430.401C412.231 431.046 413.1 431.956 413.697 433.04C414.862 435.224 415.565 437.625 415.761 440.092C416.028 441.433 416.002 442.816 415.684 444.146C415.513 444.807 415.151 445.404 414.643 445.862C414.136 446.319 413.505 446.617 412.829 446.718C400.408 447.522 388.151 444.544 376.057 441.599C372.505 440.735 368.892 439.722 365.929 437.58C363.237 435.633 361.258 432.88 359.328 430.176C355.768 425.192 352.186 420.169 349.639 414.599C346.361 407.431 344.899 399.588 343.465 391.837C342.972 389.759 342.797 387.618 342.945 385.487C343.375 382.995 344.328 380.622 345.741 378.525C347.45 375.744 349.34 373.079 351.4 370.546C354.53 366.539 359.025 363.824 364.029 362.92Z" fill="#043419"/>
</svg>
