<svg width="279" height="296" viewBox="0 0 279 296" fill="none" xmlns="http://www.w3.org/2000/svg">
<path d="M204.044 69.8335C208.419 69.1564 212.726 68.8751 216.892 70.6616C220.017 72.0053 221.788 74.9324 221.387 77.9585L213.554 74.9949L213.445 75.1668L220.346 80.0835C218.439 81.7605 216.372 82.2189 214.049 81.521C210.981 80.5939 208.747 78.5887 207.153 75.8751C206.455 74.6876 205.929 73.4012 205.309 72.1668C204.934 71.4376 204.517 70.7241 204.044 69.8335Z" fill="#A7E821"/>
<path d="M241.804 77.8386C237.934 77.6042 234.142 77.7084 230.653 79.6251C228.044 81.0521 226.731 83.7501 227.32 86.3594L233.919 83.1303L234.028 83.2709L228.403 88.1198C230.205 89.4323 232.054 89.6615 234.028 88.8646C236.632 87.8021 238.413 85.8698 239.585 83.3698C240.096 82.2761 240.45 81.1094 240.892 79.9792C241.148 79.3126 241.45 78.6563 241.804 77.8386Z" fill="#A7E821"/>
<path d="M174.221 34.6458C175.726 36.625 177.236 38.599 178.804 40.651C176.913 41.5833 175.127 41.5052 173.408 40.5312C170.507 38.8958 168.945 36.25 168.257 33.0885C167.84 31.1771 167.611 29.224 167.278 27.125C168.455 27.3542 169.674 27.5365 170.866 27.8333C173.273 28.4063 175.559 29.2865 177.57 30.7656C180.533 32.9323 181.58 36.0573 180.32 39.0833C179.299 38.2917 178.294 37.5156 177.294 36.7396C176.288 35.9583 175.356 35.224 174.377 34.4635L174.221 34.6458Z" fill="#A7E821"/>
<path d="M113.575 69.4062L107.351 65.3281L107.226 65.4427L112.257 71.0208C110.705 71.9896 109.132 72.1302 107.512 71.5052C104.669 70.4115 102.96 68.2135 101.872 65.474C101.491 64.5208 101.288 63.4896 101.028 62.4896C100.736 61.3646 100.471 60.2344 100.169 59C104.189 59.2865 108.132 59.8698 111.429 62.4844C113.658 64.276 114.476 67.0208 113.575 69.4062Z" fill="#A7E821"/>
<path d="M118.075 75.828C120.299 76.9999 121.58 79.6562 121.111 82.2968C120.366 86.4739 117.84 89.578 114.976 92.4478C114.283 91.1614 113.663 89.9478 112.991 88.7603C111.46 86.052 110.741 83.1978 111.434 80.0989C111.997 77.5885 113.726 75.8489 115.971 75.5208V82.8697L116.148 82.9114L118.075 75.828Z" fill="#A7E821"/>
<path d="M221.596 94.354L215.262 90.6092L215.174 90.7029L220.559 95.7602C218.83 96.9685 217.299 97.1508 215.726 96.6665C212.882 95.7863 211.09 93.7238 209.892 91.1144C209.434 90.1196 209.163 89.0363 208.835 87.979C208.507 86.9217 208.226 85.8748 207.898 84.729C211.033 84.6352 214.101 85.0988 217.028 86.38C217.507 86.5883 217.965 86.8279 218.408 87.104C221.012 88.7446 222.163 91.0675 221.596 94.354Z" fill="#A7E821"/>
<path d="M193.997 35.5676C193.721 33.151 193.445 30.7551 193.163 28.3645H193.023C192.674 30.7447 192.32 33.1301 191.971 35.5103C189.851 35.0312 188.314 32.8489 188.195 30.3124C188.07 27.4478 189.028 24.953 190.731 22.703L193.465 19.0833C195.924 22.6197 198.252 26.2395 197.747 30.8958C197.606 31.9635 197.2 32.9166 196.528 33.7551C195.856 34.5937 195.012 35.1978 193.997 35.5676Z" fill="#A7E821"/>
<path d="M230.965 100.713C230.075 98.3437 230.314 96.2655 231.783 94.3593C232.908 92.901 234.419 91.927 236.064 91.151C238.189 90.1353 240.424 89.4739 242.762 89.1614C242.46 91.3124 242.278 93.4114 241.846 95.453C241.299 98.0416 239.95 100.203 237.679 101.672C236.08 102.713 234.366 102.922 232.471 102.088L236.507 96.3801C236.455 96.328 236.403 96.2708 236.351 96.2135C234.596 97.6822 232.825 99.1562 230.965 100.713Z" fill="#A7E821"/>
<path d="M181.611 65.7812C180.71 67.9791 178.486 69.1353 175.939 68.901C173.346 68.651 171.189 67.5156 169.299 65.7916C168.387 64.9583 167.445 64.1718 166.434 63.2968C169.799 61.2916 173.252 59.4114 177.439 60.0781C179.59 60.4218 180.981 61.7812 181.851 63.9114L175.231 64.2031L175.205 64.3697L181.611 65.7812Z" fill="#A7E821"/>
<path d="M141.648 92.3019L136.616 96.2654L136.715 96.4738L142.684 93.88C143.07 95.979 142.429 97.5988 140.976 98.9009C139.424 100.307 137.606 101.062 135.512 101.166C134.241 101.239 132.955 101.088 131.679 101.026C130.788 100.984 129.898 100.922 128.872 100.859C128.997 100.541 129.111 100.203 129.247 99.8748C130.361 97.2759 131.773 94.8696 133.934 92.9842C136.372 90.8592 139.174 90.5936 141.648 92.3019Z" fill="#A7E821"/>
<path d="M158.116 36.3488L152.017 38.7081C152.028 38.7758 152.044 38.8383 152.054 38.9008L158.575 38.1977C158.007 40.5623 156.726 42.2238 154.491 42.7238C152.866 43.0883 151.231 43.1613 149.58 42.9269C147.497 42.6196 145.46 41.8904 143.247 41.281C144.669 39.656 145.799 38.1873 147.111 36.9008C149.221 34.8175 151.731 33.6144 154.799 34.0779C156.195 34.2863 157.267 35.0623 158.116 36.3488Z" fill="#A7E821"/>
<path d="M188.721 56.3436C188.054 53.5884 188.851 51.4894 190.945 49.8853C193.101 48.2342 195.648 47.578 198.273 47.1769C199.09 47.0519 199.919 47.0103 200.736 46.9321C200.34 48.578 200.023 50.1613 199.59 51.7134C198.887 54.2394 197.523 56.3228 195.231 57.6873C193.564 58.6717 191.84 58.7446 189.945 57.7707C191.424 56.104 192.84 54.5259 194.257 52.9425L194.132 52.7707L188.721 56.3436Z" fill="#A7E821"/>
<path d="M83.5487 92.7864L79.6894 87.7291L79.5071 87.828C80.3039 89.7603 81.106 91.6874 81.955 93.7447C80.1112 94.0833 78.6373 93.5833 77.4341 92.3645C75.4341 90.3385 74.7519 87.8072 74.9185 85.0364C75.0123 83.4583 75.2154 81.8853 75.3769 80.2239C75.606 80.2708 75.83 80.3333 76.0487 80.4114C78.6894 81.5364 81.1112 82.9947 82.9914 85.2187C85.0435 87.6405 85.2571 90.276 83.5487 92.7864Z" fill="#A7E821"/>
<path d="M230.21 113.021C229.424 110.656 230.054 108.479 232.012 106.828C234.064 105.104 236.554 104.38 239.132 103.917C240.007 103.76 240.898 103.708 241.773 103.609C241.445 105.135 241.163 106.547 240.84 107.953C240.288 110.396 239.106 112.469 237.054 113.958C235.335 115.208 233.491 115.526 231.387 114.448L235.596 109.542L235.497 109.411L230.21 113.021Z" fill="#A7E821"/>
<path d="M207.491 37.3594C206.658 38.4583 205.898 39.4427 205.158 40.4271C203.434 42.7344 201.267 44.3802 198.346 44.776C196.382 45.0469 194.762 44.4062 193.45 42.7135L199.398 40.0781L199.361 39.9219L193.064 40.9271C193.101 38.9687 194.497 37.151 196.523 36.375C198.924 35.4479 201.366 35.7187 203.788 36.2604C205.054 36.5417 206.278 36.9948 207.491 37.3594Z" fill="#A7E821"/>
<path d="M47.6529 144.63C47.1789 142.963 46.7518 141.588 46.3925 140.193C45.7206 137.62 45.8195 135.104 47.1633 132.75C48.1216 131.078 49.58 130.172 51.6581 130.135C51.4081 131.276 51.1841 132.312 50.9497 133.349C50.6893 134.401 50.5018 135.463 50.3977 136.542L53.3977 130.755C54.981 132.547 55.5643 134.411 54.856 136.604C54.231 138.578 52.981 140.151 51.4862 141.515C50.2987 142.599 48.9862 143.552 47.6529 144.63Z" fill="#A7E821"/>
<path d="M75.6737 95.5521L69.7154 93.3229L69.6321 93.4739L74.8404 97.1614C73.4654 98.4635 71.9237 98.7864 70.2258 98.3489C67.5435 97.6614 65.6998 95.8958 64.4133 93.526C63.6893 92.1927 63.0643 90.8177 62.33 89.3333C62.83 89.2396 63.3716 89.1041 63.9237 89.0468C66.455 88.7864 68.9758 88.7708 71.4237 89.6093C74.2727 90.5833 75.7987 92.6823 75.6737 95.5521Z" fill="#A7E821"/>
<path d="M126.731 88.5571C124.762 85.354 122.929 82.1457 123.471 78.2082C123.752 76.1509 125.023 74.8175 127.033 73.9009C127.179 76.0988 127.314 78.1769 127.45 80.2498L127.59 80.2603C128.007 78.2186 128.424 76.1717 128.84 74.1248C130.898 74.8748 132.059 76.9373 131.903 79.3228C131.757 81.6561 130.851 83.6613 129.356 85.4321C128.507 86.4425 127.669 87.4425 126.731 88.5571Z" fill="#A7E821"/>
<path d="M123.919 52.7395C125.309 56.0051 126.361 59.3697 125.45 63.0051C124.898 65.203 123.366 66.5051 120.991 67.0728C121.257 64.8853 121.512 62.7916 121.767 60.703L121.632 60.6562C120.851 62.5989 120.075 64.5416 119.294 66.4843C117.559 65.6822 116.674 63.4947 117.122 61.2447C117.575 58.953 118.71 57.0624 120.517 55.5728C121.606 54.6353 122.731 53.7239 123.919 52.7395Z" fill="#A7E821"/>
<path d="M78.5071 67.6925L83.9862 70.0988C83.3039 71.5102 81.4862 72.3852 79.6894 72.1977C76.9029 71.8957 74.7727 70.4634 73.0748 68.3123C72.2414 67.2602 71.4341 66.1925 70.5748 65.0832C73.7258 63.8488 76.9498 63.0311 80.3664 63.8071C80.9133 63.9165 81.4341 64.1144 81.9185 64.3904C82.4081 64.6665 82.8352 65.0154 83.2102 65.4321C83.5852 65.8488 83.8873 66.3123 84.1112 66.8227C84.3404 67.3384 84.4758 67.8696 84.5331 68.4269L78.5956 67.5102L78.5071 67.6925Z" fill="#A7E821"/>
<mask id="mask0_358_3019" style="mask-type:luminance" maskUnits="userSpaceOnUse" x="27" y="115" width="16" height="10">
<path d="M27.7466 115.391H42.83V124.724H27.7466V115.391Z" fill="white"/>
</mask>
<g mask="url(#mask0_358_3019)">
<path d="M42.2831 120.396H36.1529L36.106 120.505L42.0071 122.198C41.0487 123.599 39.8716 124.505 38.2883 124.641C37.2831 124.745 36.2935 124.661 35.3196 124.391C32.3664 123.489 30.0331 121.614 27.8248 119.26C30.0644 118.312 32.1373 117.286 34.3144 116.557C35.9029 116.021 37.6112 116.177 39.2102 116.802C40.8091 117.422 41.8769 118.588 42.2831 120.396Z" fill="#A7E821"/>
</g>
<path d="M181.34 55.3592L175.736 52.8488L175.648 52.979L180.434 56.8436C179.21 57.8852 177.887 58.203 176.45 57.8488C173.741 57.1821 171.939 55.3748 170.752 52.9373C170.075 51.5467 169.538 50.0884 168.84 48.4321C170.413 48.4321 171.96 48.354 173.481 48.453C175.465 48.5832 177.392 49.0155 179.059 50.1873C180.794 51.4009 181.549 53.078 181.34 55.3592Z" fill="#A7E821"/>
<path d="M194.028 68.9582C195.299 67.3644 196.497 65.8592 197.695 64.354L197.58 64.1978L192.955 67.6405C192.122 65.8696 192.538 63.7863 193.997 62.2498C195.715 60.4478 197.965 59.6509 200.299 59.0623C201.262 58.8228 202.257 58.7134 203.32 58.5259C202.976 60.3019 202.726 61.9582 202.32 63.5728C202.08 64.6144 201.653 65.5728 201.038 66.4478C200.429 67.328 199.674 68.0571 198.783 68.6457C197.32 69.6092 195.773 69.7134 194.028 68.9582Z" fill="#A7E821"/>
<path d="M83.0748 100.385L85.455 105.755L85.6217 105.708C85.3248 103.823 85.0279 101.932 84.7258 100.021C87.0852 100.141 88.9654 102.073 89.33 104.682C89.7467 107.677 89.0644 110.505 87.9498 113.312C86.6321 112.271 85.3092 111.354 84.1269 110.276C82.1477 108.479 80.9237 106.292 81.1737 103.505C81.2883 102.229 81.9289 101.234 83.0748 100.385Z" fill="#A7E821"/>
<path d="M97.6893 74.3386L92.3925 76.7084L92.4498 76.849L98.0748 75.9532C98.0904 76.6094 97.9498 77.2344 97.6581 77.823C97.3612 78.4115 96.9446 78.8959 96.4081 79.2813C94.5331 80.6824 92.3716 80.9428 90.1789 80.4688C88.4341 80.0938 86.7518 79.4324 84.9237 78.849C86.9602 76.1251 89.1268 73.6563 92.5279 72.7136C94.5018 72.1772 96.1216 72.8594 97.6893 74.3386Z" fill="#A7E821"/>
<path d="M147.611 56.104C148.007 58.979 148.153 61.8228 146.986 64.5675C146.044 66.8175 144.247 67.9582 141.83 67.8175L143.851 62.6769L143.705 62.5988C142.632 64.0519 141.554 65.5103 140.413 67.0415C139.267 65.8175 139.017 64.4582 139.419 62.9894C140.09 60.5311 141.778 58.9009 144.002 57.7915C145.142 57.2134 146.314 56.7082 147.611 56.104Z" fill="#A7E821"/>
<path d="M227.778 76.2447C226.736 74.1822 226.82 72.3437 228.122 70.6562C230.044 68.1614 232.773 66.9687 235.648 66.0364C235.648 67.8749 235.731 69.6249 235.622 71.3645C235.523 73.026 234.778 74.4843 233.669 75.7291C232.491 77.0364 231.044 77.5885 229.085 77.1666L231.538 72.4374L231.361 72.328L227.778 76.2447Z" fill="#A7E821"/>
<path d="M131.346 66.6925L133.236 61.9373L133.09 61.8384L130.038 65.9373C128.908 64.6248 128.695 63.2446 129.236 61.729C130.007 59.5832 131.554 58.1613 133.559 57.1873C134.575 56.6925 135.616 56.2394 136.767 55.7134C137.184 58.6873 137.346 61.6144 135.82 64.354C134.887 66.0103 133.403 66.755 131.346 66.6925Z" fill="#A7E821"/>
<path d="M166.741 78.7864C167.809 78.4114 168.721 78.1041 169.622 77.7708C171.564 77.0625 173.528 76.8333 175.512 77.5468C177.231 78.1718 178.372 79.3021 178.59 81.375L173.684 80.6093L173.622 80.7708L178.049 82.7708C176.872 84.25 175.106 84.7916 173.257 84.1927C170.372 83.2604 168.491 81.1302 166.741 78.7864Z" fill="#A7E821"/>
<path d="M44.4393 87.6928L39.6372 88.6094L39.6164 88.7969L44.4081 89.1823C43.9081 91.1355 41.7987 92.4115 39.5227 92.1771C36.8977 91.9063 34.6216 90.7813 32.4081 89.2501C34.4602 87.7917 36.0904 85.849 38.6581 85.2969C41.1581 84.7553 43.1789 85.4063 44.2362 87.198C44.3143 87.3594 44.382 87.5209 44.4393 87.6928Z" fill="#A7E821"/>
<path d="M114.96 51.6665C113.419 52.8853 111.866 53.2655 110.184 52.5624C107.267 51.3436 105.601 48.9217 104.111 46.2915C105.653 45.979 107.059 45.6353 108.486 45.4113C110.351 45.1144 112.07 45.4894 113.642 46.5415C114.95 47.3905 115.627 48.5988 115.544 50.3071L110.903 48.9842L110.809 49.1821L114.96 51.6665Z" fill="#A7E821"/>
<path d="M67.231 138.604C67.4758 137.187 67.6477 135.859 67.9498 134.557C68.3091 132.932 69.1685 131.635 70.5227 130.661C71.6894 129.818 72.9446 129.583 74.4237 130.245L71.8352 133.651L71.9758 133.812L75.3821 131.208C75.8196 132.578 75.8508 133.828 75.0331 134.891C74.4237 135.687 73.6946 136.349 72.8404 136.885C71.1477 137.937 69.2571 138.437 67.231 138.604Z" fill="#A7E821"/>
<path d="M36.3195 137.318C36.5279 136 36.6789 134.807 36.9237 133.63C37.2831 131.88 38.1373 130.401 39.6008 129.328C40.7414 128.5 41.9914 128.323 43.4862 128.917L40.8508 132.411L40.9706 132.557L44.3248 129.99C45.2518 131.224 44.5852 133.458 43.33 134.568C41.6946 136.026 39.7102 136.677 37.6268 137.115C37.2258 137.208 36.8195 137.245 36.3195 137.318Z" fill="#A7E821"/>
<path d="M220.731 58.8125C222.96 59.9167 224.96 61.2396 226.273 63.3854C227.283 65.0521 227.163 66.7135 225.934 68.3073L223.538 64.6875L223.366 64.7552C223.82 66.1146 224.267 67.4792 224.752 68.9375C223.059 69.0885 221.919 68.3854 221.096 67.1146C220.09 65.5573 219.846 63.8333 220.132 62.0312C220.288 60.9792 220.517 59.9375 220.731 58.8125Z" fill="#A7E821"/>
<path d="M76.2154 108.922L77.882 105.26C79.257 106.281 79.6373 107.844 78.981 109.615C78.3248 111.385 76.3977 113.573 74.2727 114.766C73.882 112.818 73.2779 110.963 73.1841 109.083C73.0591 106.703 74.4862 105.135 76.6893 104.786C76.5956 105.49 76.5175 106.161 76.4133 106.828C76.3143 107.49 76.1789 108.182 76.0591 108.859L76.2154 108.922Z" fill="#A7E821"/>
<path d="M67.7362 101.297L64.3091 102.5L64.356 102.703L67.8404 102.49C67.705 103.927 66.58 105.073 64.9966 105.344C62.6321 105.761 60.5071 104.974 58.1477 103.859C59.606 102.615 60.83 101.276 62.3144 100.359C64.3821 99.073 66.455 99.5261 67.7362 101.297Z" fill="#A7E821"/>
<mask id="mask1_358_3019" style="mask-type:luminance" maskUnits="userSpaceOnUse" x="45" y="0" width="207" height="201">
<path d="M45.4966 0H251.747V201H45.4966V0Z" fill="white"/>
</mask>
<g mask="url(#mask1_358_3019)">
<path d="M251.283 91.9948C250.049 77.1146 245.804 63.1354 238.195 50.2969C223.085 24.8177 201.002 8.71875 172.059 2.20312C167.314 1.14062 162.403 0.828125 157.57 0.177083C157.231 0.130209 156.898 0.057292 156.559 0H145.533C145.158 0.057292 144.788 0.130209 144.413 0.182292C139.58 0.828125 134.679 1.17708 129.919 2.20312C107.887 6.96354 89.4185 17.8958 74.7102 34.9427C59.8508 52.1719 51.856 72.2604 50.4914 94.9479C50.0018 103.182 50.5487 111.344 52.132 119.438C52.3404 120.578 52.6112 121.703 52.8612 122.854C54.0227 122.552 55.0123 122.255 56.0227 122.036C57.0331 121.818 58.0591 121.667 59.0487 121.495C53.3352 92.8958 58.3873 66.5625 76.257 43.3646C94.1268 20.1615 118.096 7.73958 147.387 6.54688C174.2 5.45312 197.445 14.5938 216.788 33.2031C228.663 44.6198 236.757 58.3073 241.392 73.9531C241.392 73.9635 241.392 73.974 241.408 73.9896C242.023 75.9844 242.679 78.6302 242.679 78.6302L242.648 78.7031C242.648 78.724 242.658 78.75 242.663 78.7708C244.158 84.9792 244.991 91.2708 245.163 97.651C245.544 111.37 243.137 124.589 237.721 137.208C234.361 145.042 230.361 152.484 224.21 158.578C220.08 162.661 215.648 166.255 210.294 168.594C207.752 169.703 205.122 170.359 202.309 170.016C200.153 169.75 198.684 168.594 198.205 166.479C197.929 165.297 197.83 164.094 197.898 162.88C198.231 158.036 199.564 153.427 201.616 149.036C204.288 143.307 208.189 138.391 212.236 133.583C215.741 129.422 219.465 125.438 222.767 121.125C227.887 114.438 229.965 106.839 228.325 98.4531C227.84 95.9844 226.866 93.6198 226.283 91.1719C224.991 85.7031 224.903 80.1302 224.997 74.5469C224.997 74.1615 224.997 73.7708 224.997 73.3802C223.32 76.9844 222.294 80.7083 222.132 84.6562C221.971 88.8281 223.127 92.8073 223.892 96.8438C224.528 100.224 225.096 103.625 224.335 107.036C223.012 112.99 219.429 117.474 214.84 121.276C214.809 121.302 214.726 121.276 214.564 121.245C215.606 118.542 215.58 115.771 215.132 112.969C214.387 108.286 212.741 103.953 210.179 99.9635C206.783 94.6615 203.2 89.4792 199.632 84.2865C196.273 79.4062 192.945 74.5104 190.398 69.151C188.497 65.151 187.096 61.0052 186.741 56.5677C186.226 49.9792 188.252 44.1562 192.195 38.9323C192.361 38.7083 192.517 38.474 192.674 38.2448C185.085 45.6302 181.788 54.5417 183.111 65.0417C184.085 72.7708 187.236 79.6406 191.778 85.901C193.148 87.7917 194.689 89.5573 195.924 91.0833C194.049 90.9948 191.866 90.6979 189.721 90.8333C186.096 91.0573 182.486 91.5729 178.866 91.9427C171.351 92.7188 164.892 90.5729 159.736 84.9323C157.517 82.5 155.346 80.0208 153.106 77.6094C150.517 74.8177 147.611 72.3958 144.07 70.9115C135.278 67.2396 126.408 67.1042 117.58 70.7135C112.851 72.6458 109.059 75.7344 106.908 80.5312C106.767 80.8438 106.674 81.1771 106.559 81.5C109.559 77.0833 113.59 74.2031 118.71 72.9167C126.585 70.9323 133.965 72.4427 140.929 76.3385C144.955 78.5885 147.825 82.0729 150.606 85.6354C152.991 88.6927 155.314 91.8073 157.835 94.75C160.82 98.2396 164.554 100.552 169.267 100.823C173.866 101.083 178.481 101.135 183.085 101.401C185.497 101.542 187.934 101.755 190.294 102.25C195.721 103.396 198.741 106.557 199.601 111.708C200.116 114.828 199.809 117.917 199.325 121.005C198.408 126.802 196.262 132.193 193.887 137.505C193.08 139.318 192.174 141.089 191.309 142.88C191.236 142.49 191.273 142.104 191.413 141.734C195.257 128.714 190.116 115.448 178.471 108.453C171.773 104.427 164.377 102.943 156.684 102.911C143.934 102.849 131.939 106.031 120.622 111.812C119.82 112.229 119.309 112.167 118.731 111.562C117.195 109.964 115.632 108.391 114.111 106.781C110.84 103.323 107.507 99.9688 103.205 97.7344C97.0175 94.5156 90.5956 93.1823 83.731 95.1198C77.4706 96.8802 72.5591 100.656 68.3925 105.516C67.9758 106 67.5956 106.521 67.1998 107.021C68.8664 105.911 70.3873 104.677 72.007 103.573C76.1685 100.74 80.6633 98.7604 85.7675 98.4948C91.5018 98.1979 96.6789 99.9948 100.981 103.615C105.392 107.318 109.392 111.521 113.648 115.573C113.288 115.823 113.163 115.938 113.012 116.01C109.241 117.906 105.538 119.964 101.679 121.656C92.7623 125.568 83.4862 126.667 73.9445 124.427C68.9758 123.26 63.9966 122.578 58.9029 123.229C54.606 123.781 50.606 125.104 47.2154 127.938C47.0279 128.094 46.8404 128.245 46.6477 128.401C50.9706 125.943 55.5435 124.995 60.3508 125.698C64.3612 126.292 68.3248 127.099 72.2466 128.13C80.9914 130.448 89.6737 130.755 98.3977 128.172C104.372 126.406 109.965 123.74 115.502 120.953C116.382 120.505 116.955 120.536 117.799 121.125C125.299 126.453 133.476 128.307 142.512 125.911C148.231 124.396 153.971 122.958 159.747 121.672C162.596 121.052 165.538 121.021 168.382 121.958C172.314 123.26 174.294 126.302 175.273 130.052C177.642 139.161 176.429 147.844 171.695 155.969C167.419 163.318 161.132 168.583 153.653 172.401C139.158 179.839 123.846 181.797 107.903 178.625C99.4081 176.938 91.6164 173.536 85.1685 167.63C79.1268 162.094 74.2466 155.583 70.0383 148.568C66.1998 142.156 63.1789 135.385 60.9758 128.245C60.8716 127.906 60.58 127.401 60.3143 127.365C58.231 127.047 56.1529 127.104 54.0904 127.526C54.1893 127.927 54.2518 128.224 54.3352 128.516C68.8925 178.927 120.382 209.812 171.903 198.76C198.887 192.969 220.017 178.281 235.294 155.339C244.632 141.297 249.872 125.755 251.283 108.948C251.392 107.615 251.538 106.276 251.663 104.938V95.9948C251.533 94.6615 251.392 93.3281 251.283 91.9948ZM147.179 116.26C143.523 117.354 139.835 118.271 136.012 118.552C132.085 118.812 128.252 118.354 124.497 117.177C130.554 111.995 155.757 108.693 163.533 112.135C157.783 112.802 152.517 114.667 147.179 116.26Z" fill="#FFDE59"/>
</g>
<path d="M24.5625 222.155V227.572H15.6458V255.655H8.91667V227.572H0V222.155H24.5625Z" fill="#FFDE59"/>
<path d="M46.7377 255.655L39.3627 242.593H36.196V255.655H29.4669V222.155H42.0502C44.6335 222.155 46.8314 222.614 48.6544 223.53C50.4877 224.437 51.8523 225.666 52.7585 227.218C53.6752 228.775 54.1335 230.509 54.1335 232.426C54.1335 234.634 53.4929 236.629 52.2169 238.405C50.9356 240.187 49.0346 241.405 46.5085 242.072L54.5294 255.655H46.7377ZM36.196 237.551H41.8002C43.6179 237.551 44.9721 237.114 45.8627 236.239C46.7637 235.364 47.2169 234.145 47.2169 232.572C47.2169 231.03 46.7637 229.838 45.8627 228.989C44.9721 228.145 43.6179 227.718 41.8002 227.718H36.196V237.551Z" fill="#FFDE59"/>
<path d="M80.7766 249.28H67.4433L65.2349 255.655H58.1724L70.2141 222.114H78.0474L90.0891 255.655H82.9849L80.7766 249.28ZM78.9641 243.905L74.1099 229.884L69.2558 243.905H78.9641Z" fill="#FFDE59"/>
<path d="M124.707 222.155L112.416 255.655H104.249L91.9572 222.155H99.1655L108.374 248.801L117.541 222.155H124.707Z" fill="#FFDE59"/>
<path d="M135.46 227.572V235.968H146.731V241.301H135.46V250.176H148.169V255.655H128.731V222.114H148.169V227.572H135.46Z" fill="#FFDE59"/>
<path d="M160.996 250.322H172.017V255.655H154.267V222.155H160.996V250.322Z" fill="#FFDE59"/>
<path d="M183.028 250.322H194.049V255.655H176.299V222.155H183.028V250.322Z" fill="#FFDE59"/>
<path d="M205.06 222.155V255.655H198.331V222.155H205.06Z" fill="#FFDE59"/>
<path d="M240.321 255.655H233.613L218.404 232.655V255.655H211.675V222.114H218.404L233.613 245.134V222.114H240.321V255.655Z" fill="#FFDE59"/>
<path d="M270.289 232.239C269.507 230.822 268.445 229.749 267.101 229.009C265.768 228.275 264.205 227.905 262.414 227.905C260.424 227.905 258.664 228.358 257.122 229.259C255.591 230.15 254.393 231.426 253.518 233.093C252.653 234.759 252.226 236.687 252.226 238.864C252.226 241.103 252.664 243.051 253.539 244.718C254.424 246.374 255.653 247.65 257.226 248.551C258.794 249.457 260.622 249.905 262.705 249.905C265.257 249.905 267.351 249.228 268.976 247.864C270.612 246.504 271.69 244.608 272.205 242.176H260.684V237.03H278.83V242.884C278.382 245.218 277.424 247.379 275.955 249.364C274.481 251.353 272.586 252.947 270.268 254.155C267.945 255.353 265.341 255.947 262.455 255.947C259.216 255.947 256.294 255.218 253.684 253.759C251.085 252.301 249.044 250.28 247.559 247.697C246.07 245.103 245.33 242.155 245.33 238.864C245.33 235.562 246.07 232.608 247.559 230.009C249.044 227.4 251.085 225.364 253.684 223.905C256.294 222.447 259.205 221.718 262.414 221.718C266.19 221.718 269.466 222.645 272.247 224.489C275.039 226.322 276.961 228.905 278.018 232.239H270.289Z" fill="#FFDE59"/>
<path d="M56.7996 295.595V281.199H65.8204V283.074H58.9662V287.449H65.3412V289.324H58.9662V293.72H65.9037V295.595H56.7996Z" fill="white"/>
<path d="M84.6454 285.887H82.437C82.3537 285.418 82.1922 285.007 81.9579 284.658C81.7339 284.298 81.4579 283.991 81.1245 283.741C80.7912 283.491 80.4162 283.304 79.9995 283.179C79.5933 283.054 79.1662 282.991 78.7079 282.991C77.8849 282.991 77.1506 283.199 76.4995 283.616C75.8433 284.033 75.3224 284.647 74.937 285.449C74.562 286.257 74.3745 287.241 74.3745 288.408C74.3745 289.574 74.562 290.564 74.937 291.366C75.3224 292.173 75.8433 292.783 76.4995 293.199C77.1506 293.606 77.8849 293.804 78.7079 293.804C79.1662 293.804 79.5933 293.741 79.9995 293.616C80.4162 293.491 80.7912 293.314 81.1245 293.074C81.4579 292.824 81.7339 292.528 81.9579 292.179C82.1922 291.819 82.3537 291.408 82.437 290.949L84.6454 290.97C84.5204 291.679 84.2912 292.335 83.9579 292.929C83.6245 293.512 83.1922 294.022 82.6662 294.449C82.1506 294.882 81.5516 295.215 80.8745 295.449C80.2079 295.668 79.4787 295.783 78.687 295.783C77.4474 295.783 76.3381 295.491 75.3537 294.908C74.3797 294.314 73.6141 293.465 73.062 292.366C72.5047 291.257 72.2287 289.939 72.2287 288.408C72.2287 286.866 72.5047 285.548 73.062 284.449C73.6297 283.34 74.4006 282.491 75.3745 281.908C76.3433 281.314 77.4474 281.012 78.687 281.012C79.4474 281.012 80.1662 281.127 80.8329 281.345C81.4995 281.554 82.0933 281.866 82.6245 282.283C83.1506 282.699 83.5881 283.215 83.937 283.824C84.2808 284.423 84.5204 285.111 84.6454 285.887Z" fill="white"/>
<path d="M103.695 288.408C103.695 289.939 103.408 291.257 102.84 292.366C102.283 293.465 101.512 294.314 100.528 294.908C99.554 295.491 98.4498 295.783 97.2154 295.783C95.9654 295.783 94.8509 295.491 93.8821 294.908C92.9082 294.314 92.1373 293.465 91.5696 292.366C91.0123 291.257 90.7363 289.939 90.7363 288.408C90.7363 286.866 91.0123 285.548 91.5696 284.449C92.1373 283.34 92.9082 282.491 93.8821 281.908C94.8509 281.314 95.9654 281.012 97.2154 281.012C98.4498 281.012 99.554 281.314 100.528 281.908C101.512 282.491 102.283 283.34 102.84 284.449C103.408 285.548 103.695 286.866 103.695 288.408ZM101.549 288.408C101.549 287.231 101.361 286.236 100.986 285.429C100.611 284.627 100.09 284.022 99.4238 283.616C98.7675 283.199 98.0332 282.991 97.2154 282.991C96.3821 282.991 95.6373 283.199 94.9863 283.616C94.3457 284.022 93.83 284.627 93.4446 285.429C93.0696 286.236 92.8821 287.231 92.8821 288.408C92.8821 289.574 93.0696 290.564 93.4446 291.366C93.83 292.173 94.3457 292.783 94.9863 293.199C95.6373 293.606 96.3821 293.804 97.2154 293.804C98.0332 293.804 98.7675 293.606 99.4238 293.199C100.09 292.783 100.611 292.173 100.986 291.366C101.361 290.564 101.549 289.574 101.549 288.408Z" fill="white"/>
<path d="M109.64 283.074V281.199H120.786V283.074H116.286V295.595H114.119V283.074H109.64Z" fill="white"/>
<path d="M136.434 281.199H138.622V290.679C138.622 291.679 138.382 292.569 137.913 293.345C137.439 294.127 136.773 294.736 135.913 295.179C135.049 295.606 134.044 295.824 132.893 295.824C131.752 295.824 130.752 295.606 129.893 295.179C129.028 294.736 128.361 294.127 127.893 293.345C127.419 292.569 127.184 291.679 127.184 290.679V281.199H129.351V290.491C129.351 291.147 129.497 291.731 129.788 292.241C130.08 292.741 130.486 293.137 131.018 293.429C131.544 293.71 132.169 293.845 132.893 293.845C133.627 293.845 134.257 293.71 134.788 293.429C135.314 293.137 135.715 292.741 135.997 292.241C136.288 291.731 136.434 291.147 136.434 290.491V281.199Z" fill="white"/>
<path d="M145.734 295.595V281.199H150.859C151.968 281.199 152.89 281.397 153.63 281.783C154.38 282.158 154.932 282.689 155.296 283.366C155.656 284.048 155.838 284.835 155.838 285.72C155.838 286.595 155.651 287.366 155.276 288.033C154.911 288.699 154.364 289.22 153.63 289.595C152.89 289.97 151.968 290.158 150.859 290.158H146.963V288.283H150.651C151.359 288.283 151.932 288.189 152.38 287.991C152.822 287.783 153.14 287.486 153.338 287.095C153.546 286.71 153.651 286.252 153.651 285.72C153.651 285.179 153.546 284.71 153.338 284.304C153.13 283.903 152.802 283.595 152.359 283.387C151.927 283.168 151.349 283.054 150.63 283.054H147.901V295.595H145.734ZM152.838 289.095L156.401 295.595H153.921L150.442 289.095H152.838Z" fill="white"/>
<path d="M164.617 281.199V295.595H162.45V281.199H164.617Z" fill="white"/>
<path d="M179.596 284.991C179.513 284.324 179.2 283.814 178.658 283.449C178.117 283.074 177.434 282.887 176.617 282.887C176.018 282.887 175.502 282.981 175.075 283.158C174.643 283.34 174.309 283.595 174.075 283.929C173.835 284.252 173.721 284.611 173.721 285.012C173.721 285.361 173.794 285.658 173.95 285.908C174.117 286.147 174.33 286.345 174.596 286.512C174.856 286.679 175.143 286.819 175.45 286.929C175.752 287.043 176.054 287.132 176.346 287.199L177.742 287.574C178.2 287.689 178.669 287.84 179.158 288.033C179.643 288.215 180.085 288.465 180.492 288.783C180.908 289.106 181.242 289.502 181.492 289.97C181.752 290.429 181.888 290.981 181.888 291.616C181.888 292.439 181.669 293.168 181.242 293.804C180.825 294.429 180.221 294.923 179.429 295.283C178.638 295.642 177.679 295.824 176.554 295.824C175.471 295.824 174.533 295.658 173.742 295.324C172.96 294.981 172.351 294.491 171.908 293.866C171.46 293.231 171.221 292.481 171.179 291.616H173.346C173.388 292.147 173.554 292.585 173.846 292.929C174.148 293.262 174.533 293.512 174.992 293.679C175.46 293.845 175.976 293.929 176.533 293.929C177.158 293.929 177.705 293.835 178.179 293.637C178.664 293.444 179.039 293.173 179.304 292.824C179.58 292.481 179.721 292.069 179.721 291.595C179.721 291.168 179.601 290.819 179.367 290.554C179.127 290.278 178.804 290.054 178.388 289.887C177.981 289.71 177.523 289.548 177.013 289.408L175.304 288.949C174.148 288.632 173.231 288.168 172.554 287.554C171.888 286.944 171.554 286.137 171.554 285.137C171.554 284.304 171.773 283.585 172.221 282.97C172.679 282.345 173.289 281.866 174.054 281.533C174.83 281.189 175.7 281.012 176.658 281.012C177.627 281.012 178.492 281.189 179.242 281.533C179.992 281.866 180.58 282.335 181.013 282.929C181.44 283.528 181.664 284.215 181.679 284.991H179.596Z" fill="white"/>
<path d="M188.43 281.199H191.055L195.638 292.387H195.805L200.388 281.199H203.034V295.595H200.972V285.179H200.826L196.597 295.574H194.867L190.617 285.179H190.492V295.595H188.43V281.199Z" fill="white"/>
<path d="M222.648 288.408C222.648 289.939 222.361 291.257 221.794 292.366C221.236 293.465 220.465 294.314 219.481 294.908C218.507 295.491 217.403 295.783 216.169 295.783C214.919 295.783 213.804 295.491 212.835 294.908C211.861 294.314 211.09 293.465 210.523 292.366C209.965 291.257 209.689 289.939 209.689 288.408C209.689 286.866 209.965 285.548 210.523 284.449C211.09 283.34 211.861 282.491 212.835 281.908C213.804 281.314 214.919 281.012 216.169 281.012C217.403 281.012 218.507 281.314 219.481 281.908C220.465 282.491 221.236 283.34 221.794 284.449C222.361 285.548 222.648 286.866 222.648 288.408ZM220.502 288.408C220.502 287.231 220.314 286.236 219.939 285.429C219.564 284.627 219.044 284.022 218.377 283.616C217.721 283.199 216.986 282.991 216.169 282.991C215.335 282.991 214.59 283.199 213.939 283.616C213.299 284.022 212.783 284.627 212.398 285.429C212.023 286.236 211.835 287.231 211.835 288.408C211.835 289.574 212.023 290.564 212.398 291.366C212.783 292.173 213.299 292.783 213.939 293.199C214.59 293.606 215.335 293.804 216.169 293.804C216.986 293.804 217.721 293.606 218.377 293.199C219.044 292.783 219.564 292.173 219.939 291.366C220.314 290.564 220.502 289.574 220.502 288.408Z" fill="white"/>
</svg>
