<svg width="489" height="435" viewBox="0 0 489 435" fill="none" xmlns="http://www.w3.org/2000/svg">
<path d="M384.454 151.396C393.974 149.934 403.347 149.326 412.413 153.185C419.213 156.087 423.067 162.41 422.194 168.946L405.149 162.545L404.911 162.916L419.927 173.536C415.779 177.159 411.28 178.149 406.225 176.641C399.55 174.639 394.688 170.307 391.22 164.446C389.701 161.881 388.557 159.102 387.208 156.436C386.392 154.861 385.485 153.32 384.454 151.396Z" fill="#A7E821"/>
<path d="M466.621 168.688C458.2 168.181 449.949 168.406 442.356 172.546C436.678 175.629 433.822 181.456 435.103 187.093L449.462 180.118L449.7 180.421L437.46 190.895C441.381 193.73 445.405 194.225 449.7 192.504C455.367 190.209 459.243 186.035 461.793 180.635C462.903 178.273 463.674 175.753 464.637 173.311C465.193 171.871 465.85 170.454 466.621 168.688Z" fill="#A7E821"/>
<path d="M319.559 75.3912C322.835 79.6662 326.121 83.93 329.533 88.3625C325.419 90.3762 321.531 90.2075 317.791 88.1037C311.479 84.5712 308.079 78.8562 306.583 72.0275C305.676 67.8987 305.177 63.68 304.452 59.1462C307.013 59.6412 309.665 60.035 312.261 60.6762C317.497 61.9137 322.472 63.815 326.847 67.01C333.295 71.69 335.573 78.44 332.831 84.9762C330.609 83.2662 328.422 81.59 326.246 79.9137C324.059 78.2262 322.03 76.64 319.899 74.9975L319.559 75.3912Z" fill="#A7E821"/>
<path d="M187.594 150.474L174.051 141.665L173.779 141.913L184.727 153.961C181.349 156.054 177.927 156.358 174.402 155.008C168.214 152.645 164.497 147.898 162.128 141.98C161.301 139.921 160.859 137.694 160.292 135.534C159.657 133.104 159.079 130.663 158.422 127.996C167.171 128.615 175.751 129.875 182.925 135.523C187.775 139.393 189.555 145.321 187.594 150.474Z" fill="#A7E821"/>
<path d="M197.386 164.345C202.225 166.876 205.013 172.614 203.993 178.318C202.373 187.34 196.876 194.045 190.643 200.244C189.135 197.465 187.787 194.844 186.325 192.279C182.993 186.429 181.429 180.264 182.936 173.57C184.16 168.148 187.923 164.39 192.807 163.681V179.555L193.193 179.645L197.386 164.345Z" fill="#A7E821"/>
<path d="M422.647 204.361L408.866 196.272L408.673 196.475L420.392 207.399C416.629 210.009 413.297 210.402 409.875 209.356C403.687 207.455 399.788 203 397.181 197.364C396.184 195.215 395.595 192.875 394.881 190.591C394.167 188.307 393.555 186.046 392.841 183.571C399.663 183.369 406.339 184.37 412.708 187.137C413.751 187.587 414.748 188.105 415.711 188.701C421.378 192.245 423.883 197.262 422.647 204.361Z" fill="#A7E821"/>
<path d="M362.592 77.3825C361.991 72.1625 361.391 66.9875 360.779 61.8237H360.473C359.713 66.965 358.943 72.1175 358.183 77.2587C353.571 76.2237 350.227 71.51 349.967 66.0312C349.695 59.8437 351.78 54.455 355.486 49.595L361.436 41.7762C366.785 49.415 371.851 57.2337 370.752 67.2912C370.446 69.5975 369.562 71.6562 368.1 73.4675C366.638 75.2787 364.802 76.5837 362.592 77.3825Z" fill="#A7E821"/>
<path d="M443.036 218.098C441.098 212.979 441.619 208.49 444.815 204.373C447.263 201.223 450.55 199.119 454.131 197.443C458.755 195.249 463.617 193.82 468.706 193.145C468.049 197.791 467.652 202.325 466.711 206.735C465.521 212.326 462.586 216.995 457.645 220.168C454.165 222.418 450.437 222.868 446.311 221.068L455.095 208.738C454.981 208.625 454.868 208.501 454.755 208.378C450.935 211.55 447.082 214.734 443.036 218.098Z" fill="#A7E821"/>
<path d="M335.641 142.644C333.681 147.391 328.841 149.889 323.299 149.382C317.655 148.842 312.963 146.39 308.849 142.666C306.866 140.866 304.815 139.167 302.616 137.277C309.937 132.946 317.451 128.885 326.563 130.325C331.244 131.067 334.27 134.004 336.163 138.605L321.758 139.235L321.701 139.595L335.641 142.644Z" fill="#A7E821"/>
<path d="M248.681 199.929L237.733 208.49L237.948 208.94L250.936 203.338C251.775 207.871 250.381 211.37 247.219 214.183C243.841 217.22 239.886 218.851 235.33 219.076C232.565 219.234 229.765 218.908 226.989 218.773C225.051 218.683 223.113 218.548 220.88 218.413C221.152 217.726 221.401 216.995 221.696 216.286C224.121 210.673 227.193 205.475 231.896 201.403C237.2 196.813 243.297 196.239 248.681 199.929Z" fill="#A7E821"/>
<path d="M284.517 79.07L271.245 84.1663C271.268 84.3125 271.302 84.4475 271.325 84.5825L285.514 83.0638C284.279 88.1713 281.491 91.76 276.629 92.84C273.093 93.6275 269.534 93.785 265.941 93.2788C261.408 92.615 256.977 91.04 252.16 89.7238C255.254 86.2138 257.713 83.0413 260.569 80.2625C265.159 75.7625 270.622 73.1638 277.297 74.165C280.335 74.615 282.669 76.2913 284.517 79.07Z" fill="#A7E821"/>
<path d="M351.111 122.259C349.661 116.307 351.395 111.774 355.951 108.309C360.643 104.742 366.185 103.325 371.897 102.459C373.676 102.189 375.478 102.099 377.257 101.93C376.396 105.485 375.705 108.905 374.764 112.257C373.234 117.714 370.265 122.214 365.278 125.161C361.651 127.287 357.9 127.445 353.775 125.341C356.993 121.741 360.076 118.332 363.159 114.912L362.887 114.541L351.111 122.259Z" fill="#A7E821"/>
<path d="M122.257 200.975L113.859 190.051L113.463 190.265C115.197 194.439 116.942 198.601 118.789 203.045C114.777 203.776 111.57 202.696 108.952 200.064C104.6 195.688 103.115 190.22 103.478 184.235C103.682 180.826 104.124 177.429 104.475 173.84C104.974 173.941 105.461 174.076 105.937 174.245C111.683 176.675 116.953 179.825 121.045 184.629C125.51 189.86 125.975 195.553 122.257 200.975Z" fill="#A7E821"/>
<path d="M441.393 244.681C439.681 239.574 441.053 234.871 445.314 231.305C449.779 227.581 455.197 226.018 460.807 225.016C462.711 224.679 464.649 224.566 466.553 224.353C465.839 227.649 465.227 230.698 464.524 233.735C463.323 239.011 460.75 243.489 456.285 246.706C452.545 249.406 448.533 250.093 443.954 247.764L453.111 237.166L452.896 236.885L441.393 244.681Z" fill="#A7E821"/>
<path d="M391.957 81.2525C390.143 83.6263 388.489 85.7525 386.879 87.8788C383.128 92.8625 378.413 96.4175 372.055 97.2725C367.783 97.8575 364.258 96.4738 361.402 92.8175L374.345 87.125L374.265 86.7875L360.563 88.9588C360.643 84.7288 363.68 80.8025 368.089 79.1263C373.313 77.1238 378.629 77.7088 383.899 78.8788C386.653 79.4863 389.316 80.465 391.957 81.2525Z" fill="#A7E821"/>
<path d="M44.148 312.958C43.1167 309.358 42.1874 306.388 41.4054 303.373C39.9434 297.815 40.1587 292.381 43.0827 287.296C45.168 283.685 48.3414 281.728 52.8634 281.649C52.3194 284.113 51.832 286.351 51.322 288.59C50.7554 290.863 50.3474 293.158 50.1207 295.486L56.6487 282.988C60.094 286.858 61.3634 290.885 59.822 295.621C58.462 299.885 55.742 303.283 52.4894 306.23C49.9054 308.57 47.0494 310.629 44.148 312.958Z" fill="#A7E821"/>
<path d="M105.121 206.949L92.156 202.134L91.9747 202.46L103.308 210.425C100.316 213.237 96.9613 213.935 93.2667 212.99C87.43 211.505 83.418 207.691 80.6187 202.572C79.0433 199.692 77.6833 196.722 76.0853 193.516C77.1733 193.314 78.352 193.021 79.5533 192.897C85.0613 192.335 90.5467 192.301 95.8733 194.112C102.073 196.216 105.393 200.75 105.121 206.949Z" fill="#A7E821"/>
<path d="M216.222 191.84C211.938 184.921 207.949 177.991 209.127 169.486C209.739 165.042 212.505 162.162 216.879 160.182C217.197 164.93 217.491 169.419 217.786 173.896L218.092 173.919C218.999 169.509 219.905 165.087 220.812 160.666C225.289 162.286 227.816 166.741 227.476 171.894C227.159 176.934 225.187 181.265 221.934 185.09C220.087 187.272 218.262 189.432 216.222 191.84Z" fill="#A7E821"/>
<path d="M210.102 114.474C213.128 121.528 215.417 128.795 213.434 136.648C212.233 141.395 208.901 144.208 203.733 145.434C204.311 140.709 204.866 136.186 205.421 131.675L205.127 131.574C203.427 135.77 201.738 139.966 200.038 144.163C196.264 142.43 194.337 137.705 195.312 132.845C196.298 127.895 198.769 123.811 202.701 120.594C205.07 118.569 207.518 116.6 210.102 114.474Z" fill="#A7E821"/>
<path d="M111.287 146.773L123.209 151.97C121.725 155.019 117.769 156.909 113.859 156.504C107.796 155.851 103.161 152.758 99.466 148.111C97.6527 145.839 95.896 143.533 94.026 141.136C100.883 138.47 107.898 136.704 115.333 138.38C116.523 138.616 117.656 139.044 118.71 139.64C119.775 140.236 120.705 140.99 121.521 141.89C122.337 142.79 122.994 143.791 123.481 144.894C123.98 146.008 124.275 147.155 124.399 148.359L111.479 146.379L111.287 146.773Z" fill="#A7E821"/>
<mask id="mask0_254_3021" style="mask-type:luminance" maskUnits="userSpaceOnUse" x="0" y="249" width="34" height="21">
<path d="M0.832031 249.8H33.6534V269.96H0.832031V249.8Z" fill="white"/>
</mask>
<g mask="url(#mask0_254_3021)">
<path d="M32.4634 260.611H19.1241L19.0221 260.848L31.8627 264.504C29.7774 267.53 27.2161 269.488 23.7707 269.78C21.5834 270.005 19.4301 269.825 17.3107 269.24C10.8847 267.294 5.80741 263.244 1.00208 258.159C5.87541 256.111 10.3861 253.895 15.1234 252.32C18.5801 251.161 22.2974 251.499 25.7767 252.849C29.2561 254.188 31.5794 256.708 32.4634 260.611Z" fill="#A7E821"/>
</g>
<path d="M335.052 120.133L322.857 114.71L322.665 114.991L333.08 123.339C330.417 125.589 327.538 126.275 324.41 125.51C318.517 124.07 314.595 120.166 312.011 114.901C310.538 111.898 309.371 108.748 307.852 105.17C311.275 105.17 314.641 105.001 317.95 105.215C322.268 105.496 326.461 106.43 330.088 108.961C333.862 111.583 335.505 115.205 335.052 120.133Z" fill="#A7E821"/>
<path d="M362.66 149.506C365.425 146.064 368.032 142.813 370.639 139.561L370.389 139.224L360.325 146.66C358.512 142.835 359.419 138.335 362.592 135.016C366.332 131.124 371.228 129.403 376.305 128.131C378.402 127.614 380.567 127.378 382.879 126.973C382.131 130.809 381.587 134.386 380.703 137.874C380.181 140.124 379.252 142.194 377.915 144.084C376.589 145.985 374.945 147.56 373.007 148.831C369.823 150.913 366.457 151.138 362.66 149.506Z" fill="#A7E821"/>
<path d="M121.226 217.389L126.405 228.988L126.768 228.886C126.122 224.814 125.476 220.73 124.819 216.601C129.953 216.86 134.044 221.034 134.837 226.67C135.744 233.139 134.259 239.248 131.834 245.311C128.967 243.061 126.088 241.081 123.515 238.753C119.209 234.871 116.545 230.146 117.089 224.128C117.339 221.371 118.733 219.223 121.226 217.389Z" fill="#A7E821"/>
<path d="M153.027 161.128L141.501 166.246L141.626 166.55L153.866 164.615C153.9 166.033 153.594 167.383 152.959 168.654C152.313 169.925 151.407 170.971 150.239 171.804C146.159 174.83 141.456 175.393 136.685 174.369C132.888 173.559 129.227 172.13 125.249 170.87C129.681 164.986 134.395 159.654 141.796 157.618C146.091 156.459 149.616 157.933 153.027 161.128Z" fill="#A7E821"/>
<path d="M261.657 121.741C262.519 127.951 262.836 134.094 260.297 140.022C258.246 144.882 254.336 147.346 249.077 147.042L253.475 135.939L253.157 135.77C250.823 138.909 248.477 142.059 245.995 145.366C243.501 142.722 242.957 139.786 243.83 136.614C245.292 131.304 248.964 127.782 253.803 125.386C256.285 124.137 258.835 123.046 261.657 121.741Z" fill="#A7E821"/>
<path d="M436.1 165.245C433.833 160.79 434.015 156.819 436.848 153.174C441.03 147.785 446.969 145.209 453.225 143.195C453.225 147.166 453.406 150.946 453.168 154.704C452.953 158.293 451.332 161.443 448.918 164.131C446.357 166.955 443.206 168.148 438.945 167.236L444.283 157.021L443.897 156.785L436.1 165.245Z" fill="#A7E821"/>
<path d="M226.263 144.612L230.377 134.341L230.06 134.127L223.419 142.981C220.959 140.146 220.495 137.165 221.673 133.891C223.351 129.256 226.717 126.185 231.08 124.081C233.29 123.012 235.557 122.034 238.061 120.897C238.968 127.321 239.319 133.644 235.999 139.561C233.97 143.139 230.74 144.747 226.263 144.612Z" fill="#A7E821"/>
<path d="M303.285 170.735C305.608 169.925 307.591 169.261 309.552 168.541C313.779 167.011 318.052 166.516 322.37 168.057C326.11 169.407 328.592 171.849 329.068 176.326L318.392 174.672L318.256 175.021L327.889 179.341C325.328 182.536 321.486 183.706 317.463 182.412C311.184 180.399 307.093 175.797 303.285 170.735Z" fill="#A7E821"/>
<path d="M37.1553 189.972L26.706 191.952L26.6607 192.357L37.0873 193.19C35.9993 197.409 31.4093 200.165 26.4567 199.659C20.7447 199.074 15.792 196.644 10.9753 193.336C15.4407 190.186 18.988 185.99 24.5753 184.797C30.0153 183.627 34.4127 185.034 36.7133 188.904C36.8833 189.252 37.0307 189.601 37.1553 189.972Z" fill="#A7E821"/>
<path d="M190.609 112.156C187.254 114.789 183.877 115.61 180.216 114.091C173.869 111.459 170.243 106.228 167.001 100.546C170.356 99.8713 173.416 99.1288 176.521 98.645C180.579 98.0038 184.319 98.8138 187.741 101.086C190.586 102.92 192.059 105.53 191.878 109.22L181.78 106.363L181.576 106.79L190.609 112.156Z" fill="#A7E821"/>
<path d="M86.75 299.941C87.2827 296.881 87.6567 294.013 88.314 291.2C89.096 287.69 90.966 284.889 93.9127 282.785C96.4513 280.963 99.1827 280.456 102.401 281.885L96.7687 289.243L97.0747 289.591L104.487 283.966C105.439 286.925 105.507 289.625 103.727 291.92C102.401 293.641 100.815 295.07 98.956 296.229C95.2727 298.501 91.1587 299.581 86.75 299.941Z" fill="#A7E821"/>
<path d="M19.4867 297.163C19.94 294.316 20.2687 291.74 20.8014 289.198C21.5834 285.418 23.442 282.223 26.6267 279.905C29.1087 278.116 31.8287 277.734 35.0814 279.016L29.3467 286.565L29.6074 286.88L36.906 281.334C38.9234 284 37.4727 288.826 34.7414 291.223C31.1827 294.373 26.8647 295.779 22.3314 296.724C21.4587 296.926 20.5747 297.005 19.4867 297.163Z" fill="#A7E821"/>
<path d="M420.766 127.591C425.617 129.976 429.969 132.834 432.825 137.469C435.023 141.069 434.763 144.658 432.088 148.1L426.875 140.281L426.501 140.428C427.487 143.364 428.461 146.311 429.515 149.461C425.832 149.788 423.35 148.269 421.559 145.524C419.372 142.16 418.839 138.436 419.463 134.544C419.803 132.271 420.301 130.021 420.766 127.591Z" fill="#A7E821"/>
<path d="M106.3 235.828L109.927 227.919C112.919 230.124 113.746 233.499 112.318 237.324C110.89 241.149 106.697 245.874 102.073 248.45C101.223 244.243 99.908 240.238 99.704 236.176C99.432 231.035 102.537 227.649 107.331 226.895C107.127 228.414 106.957 229.865 106.731 231.305C106.515 232.734 106.221 234.23 105.96 235.693L106.3 235.828Z" fill="#A7E821"/>
<path d="M87.8493 219.358L80.392 221.956L80.494 222.395L88.076 221.934C87.7813 225.039 85.3333 227.514 81.888 228.099C76.7426 228.999 72.1186 227.3 66.9846 224.893C70.158 222.204 72.8213 219.313 76.0513 217.333C80.5506 214.554 85.0613 215.533 87.8493 219.358Z" fill="#A7E821"/>
<mask id="mask1_254_3021" style="mask-type:luminance" maskUnits="userSpaceOnUse" x="39" y="0" width="450" height="435">
<path d="M39.4561 0.556274H488.256V434.716H39.4561V0.556274Z" fill="white"/>
</mask>
<g mask="url(#mask1_254_3021)">
<path d="M487.247 199.265C484.561 167.124 475.325 136.929 458.767 109.198C425.889 54.1625 377.835 19.3888 314.856 5.31502C304.531 3.02002 293.844 2.34502 283.327 0.938774C282.59 0.837525 281.865 0.680025 281.128 0.556274H257.135C256.319 0.680025 255.515 0.837526 254.699 0.950024C244.181 2.34502 233.517 3.09878 223.158 5.31502C175.218 15.5975 135.03 39.2113 103.025 76.0325C70.6907 113.248 53.294 156.639 50.3247 205.644C49.2594 223.43 50.4494 241.059 53.8947 258.541C54.348 261.005 54.9374 263.435 55.4814 265.921C58.0087 265.269 60.162 264.628 62.3607 264.155C64.5594 263.683 66.792 263.356 68.9454 262.985C56.5127 201.211 67.506 144.331 106.391 94.2238C145.275 44.105 197.431 17.2738 261.17 14.6975C319.514 12.335 370.095 32.0788 412.187 72.275C438.027 96.935 455.639 126.5 465.725 160.295C465.725 160.318 465.725 160.34 465.759 160.374C467.097 164.683 468.525 170.398 468.525 170.398L468.457 170.555C468.457 170.6 468.479 170.656 468.491 170.701C471.743 184.111 473.557 197.701 473.931 211.483C474.758 241.115 469.522 269.668 457.735 296.926C450.425 313.846 441.721 329.923 428.337 343.085C419.349 351.905 409.705 359.668 398.054 364.719C392.523 367.115 386.8 368.533 380.68 367.79C375.988 367.216 372.792 364.719 371.749 360.151C371.149 357.598 370.933 354.999 371.081 352.378C371.806 341.915 374.707 331.959 379.173 322.475C384.987 310.1 393.475 299.48 402.281 289.096C409.909 280.108 418.012 271.501 425.197 262.186C436.338 247.741 440.86 231.328 437.29 213.215C436.236 207.883 434.117 202.775 432.847 197.488C430.037 185.675 429.844 173.638 430.048 161.578C430.048 160.745 430.048 159.901 430.048 159.058C426.399 166.843 424.166 174.886 423.815 183.414C423.463 192.425 425.979 201.02 427.645 209.739C429.028 217.04 430.263 224.386 428.609 231.755C425.73 244.614 417.933 254.3 407.948 262.513C407.88 262.569 407.699 262.513 407.347 262.445C409.614 256.606 409.557 250.621 408.583 244.569C406.962 234.455 403.381 225.095 397.805 216.478C390.415 205.025 382.618 193.831 374.855 182.615C367.545 172.074 360.303 161.499 354.761 149.923C350.624 141.283 347.575 132.328 346.805 122.743C345.683 108.511 350.091 95.9338 358.671 84.65C359.033 84.1663 359.373 83.66 359.713 83.165C343.201 99.1175 336.027 118.366 338.905 141.046C341.025 157.741 347.881 172.58 357.764 186.103C360.745 190.186 364.099 194 366.785 197.296C362.705 197.105 357.957 196.464 353.287 196.756C345.399 197.24 337.545 198.354 329.669 199.153C313.315 200.829 299.261 196.194 288.041 184.01C283.213 178.756 278.487 173.401 273.614 168.193C267.981 162.163 261.657 156.931 253.951 153.725C234.82 145.794 215.519 145.501 196.309 153.298C186.019 157.471 177.768 164.143 173.087 174.504C172.781 175.179 172.577 175.899 172.328 176.596C178.856 167.056 187.628 160.835 198.769 158.056C215.905 153.77 231.964 157.033 247.117 165.448C255.877 170.308 262.122 177.834 268.174 185.529C273.365 192.133 278.419 198.86 283.905 205.216C290.399 212.754 298.525 217.749 308.781 218.334C318.789 218.896 328.83 219.009 338.849 219.583C344.096 219.886 349.4 220.348 354.534 221.416C366.343 223.891 372.917 230.72 374.787 241.846C375.909 248.585 375.24 255.256 374.186 261.928C372.191 274.449 367.522 286.093 362.354 297.568C360.597 301.483 358.625 305.308 356.744 309.178C356.585 308.334 356.665 307.501 356.971 306.703C365.335 278.578 354.149 249.924 328.807 234.815C314.233 226.119 298.139 222.913 281.4 222.845C253.656 222.71 227.555 229.584 202.928 242.071C201.183 242.971 200.072 242.836 198.814 241.531C195.471 238.078 192.071 234.68 188.761 231.204C181.644 223.734 174.391 216.489 165.029 211.663C151.565 204.71 137.591 201.83 122.654 206.015C109.031 209.818 98.344 217.974 89.2774 228.47C88.3707 229.516 87.5434 230.641 86.682 231.721C90.3087 229.325 93.618 226.659 97.1427 224.274C106.198 218.154 115.979 213.879 127.085 213.305C139.563 212.664 150.829 216.545 160.19 224.364C169.789 232.363 178.493 241.441 187.753 250.194C186.971 250.734 186.699 250.981 186.37 251.139C178.165 255.234 170.107 259.678 161.709 263.334C142.306 271.783 122.121 274.156 101.359 269.319C90.5467 266.799 79.712 265.325 68.628 266.731C59.278 267.924 50.574 270.781 43.196 276.901C42.788 277.239 42.38 277.565 41.9607 277.903C51.3674 272.593 61.318 270.545 71.7787 272.064C80.5054 273.346 89.13 275.09 97.664 277.318C116.693 282.324 135.585 282.988 154.569 277.408C167.568 273.594 179.74 267.834 191.787 261.815C193.703 260.848 194.949 260.915 196.785 262.186C213.105 273.695 230.899 277.7 250.562 272.525C263.006 269.251 275.495 266.146 288.064 263.368C294.263 262.029 300.667 261.961 306.855 263.986C315.411 266.799 319.718 273.369 321.849 281.469C327.005 301.145 324.365 319.899 314.063 337.449C304.758 353.323 291.079 364.696 274.804 372.943C243.263 389.008 209.943 393.238 175.252 386.386C156.767 382.741 139.813 375.395 125.782 362.638C112.635 350.679 102.016 336.616 92.8587 321.463C84.506 307.614 77.9327 292.989 73.1387 277.565C72.912 276.834 72.2774 275.743 71.6994 275.664C67.166 274.978 62.644 275.101 58.156 276.013C58.3714 276.879 58.5074 277.52 58.6887 278.15C90.3654 387.039 202.407 453.751 314.516 429.879C373.234 417.369 419.213 385.644 452.454 336.088C472.775 305.758 484.176 272.188 487.247 235.884C487.485 233.004 487.803 230.113 488.075 227.221V207.905C487.791 205.025 487.485 202.145 487.247 199.265ZM260.717 251.679C252.761 254.041 244.737 256.021 236.418 256.629C227.873 257.191 219.531 256.201 211.36 253.659C224.541 242.465 279.383 235.333 296.303 242.769C283.791 244.209 272.333 248.236 260.717 251.679Z" fill="#FFDE59"/>
</g>
</svg>
