<svg width="64" height="57" viewBox="0 0 64 57" fill="none" xmlns="http://www.w3.org/2000/svg">
<path d="M50.3706 19.8035C51.6206 19.6115 52.8513 19.5317 54.0417 20.0398C54.9346 20.4209 55.4405 21.251 55.326 22.1076L53.0879 21.2672L53.0566 21.3174L55.0283 22.7102C54.4837 23.1858 53.8929 23.3158 53.2292 23.1179C52.3527 22.855 51.7144 22.2878 51.259 21.5168C51.0596 21.1801 50.9093 20.8152 50.7322 20.4667C50.6251 20.2584 50.506 20.0561 50.3706 19.8035Z" fill="#A7E821"/>
<path d="M61.1591 22.0736C60.0534 22.0086 58.9701 22.0381 57.973 22.5802C57.2275 22.9849 56.8525 23.7514 57.0207 24.4914L58.9061 23.5742L58.9373 23.6156L57.3302 24.9906C57.8451 25.3614 58.3733 25.4264 58.9373 25.2004C59.6814 24.8991 60.1903 24.3526 60.5251 23.6421C60.671 23.332 60.7722 23.0011 60.8986 22.6821C60.9716 22.4916 61.0579 22.3055 61.1591 22.0736Z" fill="#A7E821"/>
<path d="M41.8498 9.82639C42.2799 10.3862 42.7114 10.9459 43.1594 11.5294C42.6192 11.7937 42.1088 11.7701 41.6177 11.4939C40.7888 11.0301 40.3424 10.2813 40.146 9.38477C40.0269 8.84124 39.9614 8.28737 39.8662 7.69214C40.2025 7.75713 40.5507 7.8103 40.8915 7.89301C41.579 8.05548 42.2323 8.30657 42.8067 8.72455C43.6534 9.34046 43.9525 10.2252 43.5924 11.0848C43.3007 10.8588 43.0135 10.6402 42.7278 10.4187C42.4406 10.1971 42.1742 9.98886 41.8945 9.77469L41.8498 9.82639Z" fill="#A7E821"/>
<path d="M24.5222 19.6839L22.744 18.5259L22.7083 18.5599L24.1458 20.1403C23.7023 20.415 23.2529 20.4549 22.7901 20.2791C21.9776 19.9675 21.4895 19.3442 21.1785 18.5673C21.0699 18.297 21.0118 18.006 20.9374 17.7224C20.8541 17.4034 20.7782 17.0814 20.6919 16.7328C21.8407 16.8126 22.9672 16.9795 23.9092 17.721C24.5461 18.2276 24.7797 19.0074 24.5222 19.6839Z" fill="#A7E821"/>
<path d="M25.8079 21.5035C26.4433 21.8358 26.8094 22.5906 26.6754 23.3394C26.4626 24.5225 25.7409 25.4028 24.9225 26.2166C24.7245 25.8518 24.5475 25.5091 24.3555 25.1709C23.918 24.4043 23.7126 23.5935 23.9106 22.7147C24.0713 22.0042 24.5653 21.5094 25.2067 21.4164V23.5019L25.2573 23.5122L25.8079 21.5035Z" fill="#A7E821"/>
<path d="M55.3854 26.7571L53.5758 25.6952L53.5505 25.7218L55.0892 27.1559C54.5952 27.5001 54.1577 27.5518 53.7083 27.4129C52.8958 27.1633 52.3839 26.5784 52.0416 25.8399C51.9107 25.5563 51.8333 25.2491 51.7395 24.9493C51.6458 24.6495 51.5654 24.3526 51.4717 24.0291C52.3675 24.0025 53.244 24.134 54.0803 24.4973C54.2172 24.5549 54.3482 24.6244 54.4747 24.7012C55.2187 25.1664 55.5476 25.8251 55.3854 26.7571Z" fill="#A7E821"/>
<path d="M47.5002 10.0864C47.4213 9.40103 47.3425 8.72309 47.2621 8.04368H47.2219C47.1222 8.71866 47.021 9.39512 46.9213 10.0716C46.3157 9.9357 45.8767 9.31537 45.8425 8.59607C45.8068 7.78373 46.0806 7.07773 46.5672 6.43967L47.3484 5.41168C48.0508 6.41456 48.716 7.44254 48.5716 8.7615C48.5315 9.06428 48.4154 9.33457 48.2234 9.57236C48.0315 9.81164 47.7904 9.98297 47.5002 10.0864Z" fill="#A7E821"/>
<path d="M58.0623 28.5606C57.8078 27.8885 57.8763 27.2992 58.2959 26.7586C58.6173 26.3466 59.0489 26.0704 59.5191 25.8488C60.1263 25.5608 60.7647 25.3732 61.4328 25.2861C61.3465 25.8961 61.2944 26.4898 61.1709 27.0688C61.0147 27.8029 60.6292 28.4158 59.9804 28.8323C59.5236 29.1277 59.034 29.1868 58.4923 28.9505L59.6456 27.3317C59.6307 27.3169 59.6159 27.3007 59.601 27.2844C59.0995 27.7024 58.5935 28.1204 58.0623 28.5606Z" fill="#A7E821"/>
<path d="M43.9613 18.6544C43.7039 19.2792 43.0685 19.6071 42.3408 19.5391C41.5997 19.4682 40.9836 19.1477 40.4435 18.6573C40.183 18.4225 39.9137 18.198 39.625 17.9499C40.5863 17.3812 41.5729 16.848 42.7693 17.0386C43.3839 17.136 43.7813 17.5201 44.0298 18.1256L42.1384 18.2083L42.131 18.2541L43.9613 18.6544Z" fill="#A7E821"/>
<path d="M32.5434 26.1767L31.1059 27.3007L31.1341 27.3598L32.8395 26.6242C32.9496 27.2194 32.7666 27.6773 32.3514 28.048C31.9079 28.4468 31.3886 28.661 30.7904 28.6905C30.4273 28.7112 30.0597 28.6684 29.6952 28.6506C29.4407 28.6388 29.1862 28.6196 28.8931 28.6019C28.9288 28.5118 28.9615 28.4158 29.0002 28.3242C29.3187 27.5857 29.7219 26.9034 30.3395 26.3702C31.0359 25.7676 31.8365 25.6922 32.5434 26.1767Z" fill="#A7E821"/>
<path d="M37.2485 10.3079L35.506 10.9784C35.5089 10.9962 35.5134 11.0139 35.5164 11.0331L37.3795 10.8322C37.2173 11.5028 36.8512 11.9739 36.2128 12.1157C35.7485 12.2206 35.2812 12.2398 34.8095 12.1748C34.2143 12.0877 33.6324 11.8794 33 11.7081C33.4062 11.2473 33.7292 10.8307 34.1042 10.4644C34.7068 9.87513 35.4241 9.53395 36.3006 9.66392C36.6994 9.72448 37.006 9.94307 37.2485 10.3079Z" fill="#A7E821"/>
<path d="M45.9924 15.9781C45.8019 15.1967 46.0296 14.6015 46.6278 14.1466C47.2439 13.6799 47.9716 13.4938 48.7216 13.38C48.9552 13.3446 49.1918 13.3313 49.4254 13.3091C49.3123 13.7773 49.2216 14.2249 49.0981 14.6665C48.8972 15.3814 48.5073 15.9736 47.8525 16.3591C47.3763 16.6398 46.8838 16.659 46.3421 16.3828C46.7647 15.9116 47.1695 15.4641 47.5743 15.0136L47.5385 14.9648L45.9924 15.9781Z" fill="#A7E821"/>
<path d="M15.9434 26.314L14.8407 24.8784L14.7886 24.9079C15.0163 25.4544 15.2454 26.0009 15.488 26.5843C14.9612 26.6818 14.5401 26.54 14.1963 26.1944C13.6249 25.6184 13.43 24.902 13.4776 24.1148C13.5044 23.6673 13.5624 23.2212 13.6085 22.7515C13.674 22.7633 13.738 22.7811 13.8005 22.8047C14.555 23.1237 15.2469 23.5358 15.7841 24.168C16.3704 24.8533 16.4315 25.6006 15.9434 26.314Z" fill="#A7E821"/>
<path d="M57.8465 32.0507C57.6218 31.3801 57.8019 30.7642 58.3614 30.296C58.9477 29.8057 59.659 29.6004 60.3957 29.4704C60.6457 29.4246 60.9001 29.4113 61.1501 29.3818C61.0564 29.8145 60.976 30.2148 60.8837 30.6151C60.726 31.3078 60.3882 31.8956 59.8019 32.3166C59.3108 32.671 58.784 32.7626 58.1829 32.4554L59.3852 31.0655L59.357 31.0271L57.8465 32.0507Z" fill="#A7E821"/>
<path d="M51.3554 10.5959C51.1173 10.9076 50.9001 11.1852 50.6888 11.4644C50.1962 12.1202 49.5771 12.5854 48.7423 12.6992C48.1813 12.776 47.7185 12.5928 47.3435 12.1143L49.0429 11.3654L49.0325 11.3211L47.2334 11.6062C47.2438 11.0508 47.6426 10.5354 48.2215 10.3153C48.9075 10.0539 49.6054 10.1292 50.2974 10.2828C50.659 10.3626 51.0087 10.4911 51.3554 10.5959Z" fill="#A7E821"/>
<path d="M5.68762 41.0146C5.5522 40.5419 5.43018 40.152 5.3275 39.7562C5.13553 39.0266 5.16381 38.3146 5.54774 37.647C5.82154 37.1714 6.23821 36.9145 6.83196 36.9041C6.76053 37.2291 6.69654 37.523 6.62958 37.8154C6.55518 38.1138 6.5016 38.4151 6.47184 38.7208L7.32899 37.0814C7.78137 37.588 7.94803 38.1182 7.74565 38.7385C7.56708 39.2983 7.20994 39.7458 6.78285 40.1313C6.44357 40.44 6.06857 40.7103 5.68762 41.0146Z" fill="#A7E821"/>
<path d="M13.6934 27.0969L11.991 26.4647L11.9672 26.5075L13.4553 27.5533C13.0624 27.9225 12.6219 28.0141 12.1368 27.8915C11.3704 27.695 10.8437 27.1943 10.4761 26.5223C10.2693 26.1457 10.0907 25.7558 9.88086 25.3333C10.0237 25.3082 10.1785 25.2683 10.3362 25.2536C11.0594 25.1797 11.7797 25.1753 12.4791 25.4131C13.2931 25.6893 13.7291 26.2845 13.6934 27.0969Z" fill="#A7E821"/>
<path d="M28.2813 25.1147C27.7188 24.2049 27.195 23.2951 27.3498 22.1785C27.4301 21.5951 27.7932 21.2184 28.3676 20.9585C28.4093 21.5803 28.448 22.1696 28.4867 22.7589L28.5269 22.7619C28.6459 22.1829 28.765 21.6025 28.884 21.0205C29.4718 21.2347 29.8036 21.8181 29.759 22.4946C29.7173 23.1577 29.4584 23.7264 29.0313 24.2271C28.7888 24.5136 28.5492 24.7987 28.2813 25.1147Z" fill="#A7E821"/>
<path d="M27.4778 14.9575C27.8751 15.8821 28.1757 16.8377 27.9153 17.8686C27.7576 18.4919 27.3201 18.8611 26.6415 19.0207C26.7174 18.4003 26.7903 17.808 26.8632 17.2143L26.8246 17.2025C26.6013 17.7534 26.3796 18.3028 26.1564 18.8538C25.6609 18.6278 25.4079 18.0074 25.5359 17.3679C25.6653 16.718 25.9897 16.1819 26.5061 15.7609C26.8171 15.4936 27.1385 15.2351 27.4778 14.9575Z" fill="#A7E821"/>
<path d="M14.5032 19.1964L16.0687 19.8788C15.8737 20.2791 15.3544 20.5272 14.841 20.4755C14.0449 20.3884 13.4362 19.9822 12.9511 19.3722C12.713 19.0738 12.4824 18.7725 12.2368 18.4565C13.1371 18.1079 14.0582 17.8745 15.0344 18.0946C15.1907 18.1271 15.3395 18.1817 15.4779 18.26C15.6178 18.3398 15.7398 18.4387 15.8469 18.5554C15.9541 18.6736 16.0404 18.805 16.1044 18.9513C16.1699 19.096 16.2085 19.2481 16.2249 19.4062L14.5285 19.1462L14.5032 19.1964Z" fill="#A7E821"/>
<mask id="mask0_13_216" style="mask-type:luminance" maskUnits="userSpaceOnUse" x="0" y="32" width="5" height="4">
<path d="M0 32.8261H4.30952V35.4729H0V32.8261Z" fill="white"/>
</mask>
<g mask="url(#mask0_13_216)">
<path d="M4.15341 34.1436H2.40193L2.38853 34.1746L4.07454 34.6531C3.80073 35.0504 3.46443 35.3074 3.01204 35.3473C2.72484 35.3769 2.4421 35.3517 2.16383 35.2749C1.32008 35.0194 0.653413 34.4877 0.0224609 33.8201C0.662342 33.5513 1.2546 33.2618 1.87663 33.0535C2.3305 32.9014 2.81859 32.9472 3.27544 33.123C3.73228 33.2987 4.03734 33.6296 4.15341 34.1436Z" fill="#A7E821"/>
</g>
<path d="M43.8839 15.6989L42.2827 14.987L42.2574 15.0239L43.625 16.1213C43.2753 16.4152 42.8973 16.5053 42.4866 16.4049C41.7128 16.2159 41.1979 15.7033 40.8586 15.0121C40.6652 14.6178 40.5119 14.2057 40.3125 13.736C40.7619 13.736 41.2039 13.7124 41.6384 13.7404C42.2054 13.7773 42.756 13.8999 43.2321 14.2323C43.7277 14.5764 43.9435 15.052 43.8839 15.6989Z" fill="#A7E821"/>
<path d="M47.509 19.5553C47.872 19.1049 48.2143 18.678 48.5566 18.2512L48.5238 18.2054L47.2024 19.1817C46.9643 18.6795 47.0834 18.0887 47.5 17.653C47.9911 17.1419 48.634 16.916 49.3006 16.7505C49.5759 16.6826 49.8601 16.6501 50.1637 16.5969C50.0655 17.1006 49.9941 17.5703 49.878 18.0296C49.8095 18.325 49.6875 18.5968 49.5119 18.8449C49.3378 19.093 49.122 19.2998 48.8676 19.4667C48.4494 19.74 48.0075 19.771 47.509 19.5553Z" fill="#A7E821"/>
<path d="M15.8082 28.4675L16.4883 29.9903L16.5359 29.9785C16.4511 29.4423 16.3663 28.9062 16.28 28.3656C16.9541 28.3996 17.4913 28.9475 17.5954 29.686C17.7145 30.5368 17.5195 31.3388 17.2011 32.1334C16.8246 31.8395 16.4466 31.5781 16.1088 31.2738C15.5433 30.7628 15.1936 30.1424 15.2651 29.3537C15.2978 28.9918 15.4808 28.7083 15.8082 28.4675Z" fill="#A7E821"/>
<path d="M19.9837 21.0825L18.4704 21.7531L18.4867 21.7944L20.0939 21.5389C20.0983 21.7265 20.0582 21.9023 19.9748 22.0692C19.89 22.2375 19.771 22.3749 19.6177 22.4827C19.082 22.8815 18.4644 22.9554 17.8379 22.821C17.3394 22.7131 16.8587 22.5256 16.3364 22.3601C16.9183 21.5891 17.5373 20.889 18.509 20.6202C19.073 20.4696 19.5358 20.6631 19.9837 21.0825Z" fill="#A7E821"/>
<path d="M34.2468 15.9102C34.3599 16.7255 34.4016 17.5319 34.0682 18.3103C33.7989 18.9483 33.2855 19.2733 32.595 19.2334L33.1724 17.7756L33.1307 17.752C32.8242 18.1655 32.5162 18.5776 32.1903 19.0133C31.8629 18.6662 31.7915 18.2792 31.906 17.8627C32.098 17.1656 32.5801 16.7048 33.2156 16.3887C33.5415 16.2248 33.8763 16.0815 34.2468 15.9102Z" fill="#A7E821"/>
<path d="M57.1518 21.6216C56.8542 21.0367 56.878 20.5154 57.2501 20.0368C57.7992 19.3293 58.5789 18.9911 59.4004 18.7282C59.4004 19.2496 59.4242 19.7459 59.3929 20.2377C59.3646 20.7103 59.1518 21.1224 58.8349 21.4769C58.4986 21.8476 58.0849 22.0027 57.5254 21.8831L58.2263 20.5434L58.1757 20.5109L57.1518 21.6216Z" fill="#A7E821"/>
<path d="M29.5999 18.9129L30.1401 17.5644L30.0984 17.5378L29.2264 18.6987C28.9035 18.3265 28.8425 17.9351 28.9973 17.5053C29.2175 16.8983 29.6595 16.495 30.2324 16.2174C30.5226 16.0771 30.8202 15.9486 31.149 15.7994C31.2681 16.6427 31.3142 17.4743 30.8782 18.2497C30.6118 18.7209 30.1877 18.9306 29.5999 18.9129Z" fill="#A7E821"/>
<path d="M39.7129 22.3439C40.0179 22.2375 40.2784 22.1489 40.5358 22.0559C41.0909 21.855 41.6519 21.79 42.2188 21.9924C42.7099 22.1696 43.0358 22.4886 43.0983 23.0765L41.6965 22.8608L41.6787 22.9066L42.9435 23.4738C42.6072 23.8933 42.1028 24.0454 41.5745 23.8755C40.7501 23.6126 40.2129 23.0085 39.7129 22.3439Z" fill="#A7E821"/>
<path d="M4.76953 24.8681L3.39751 25.1295L3.39156 25.1812L4.7606 25.2905C4.61775 25.8444 4.01507 26.2077 3.36477 26.1413C2.61477 26.063 1.96447 25.7454 1.33203 25.3097C1.91834 24.8976 2.38411 24.3467 3.11775 24.1887C3.83203 24.0365 4.40941 24.2197 4.7115 24.7278C4.73382 24.7736 4.75316 24.8208 4.76953 24.8681Z" fill="#A7E821"/>
<path d="M24.9181 14.6532C24.4776 14.9989 24.0341 15.1052 23.5535 14.9058C22.7201 14.5602 22.244 13.8749 21.8184 13.129C22.2588 13.0389 22.6606 12.9414 23.0684 12.8794C23.6011 12.7937 24.0922 12.9001 24.5416 13.1984C24.9151 13.4406 25.1085 13.7833 25.0847 14.2663L23.7588 13.8911L23.732 13.9472L24.9181 14.6532Z" fill="#A7E821"/>
<path d="M11.2812 39.3056C11.3512 38.9053 11.4003 38.5272 11.4866 38.1595C11.5893 37.6972 11.8348 37.3294 12.2217 37.0532C12.5551 36.8139 12.9137 36.7489 13.3363 36.9365L12.5967 37.901L12.6369 37.9483L13.6101 37.2098C13.7351 37.5982 13.744 37.9512 13.5104 38.2525C13.3363 38.4785 13.128 38.6676 12.8839 38.8182C12.4003 39.1166 11.8601 39.2584 11.2812 39.3056Z" fill="#A7E821"/>
<path d="M2.44922 38.9409C2.50874 38.5687 2.5519 38.2289 2.62184 37.8951C2.72452 37.3989 2.96856 36.9794 3.38672 36.6766C3.71261 36.4403 4.06975 36.3916 4.49684 36.5585L3.74386 37.5495L3.77809 37.5909L4.73642 36.8642C5.0013 37.2128 4.81083 37.8464 4.4522 38.1625C3.98493 38.5746 3.41797 38.7607 2.82273 38.8847C2.70815 38.9098 2.59208 38.9202 2.44922 38.9409Z" fill="#A7E821"/>
<path d="M55.1386 16.6782C55.7755 16.9928 56.3469 17.3679 56.7219 17.9764C57.0106 18.4476 56.9764 18.9202 56.6252 19.3707L55.9407 18.3457L55.8916 18.3634C56.021 18.7504 56.149 19.1359 56.2874 19.5509C55.8038 19.5923 55.4779 19.3943 55.2428 19.0325C54.9556 18.5909 54.8856 18.102 54.9675 17.5909C55.0121 17.2926 55.0776 16.9987 55.1386 16.6782Z" fill="#A7E821"/>
<path d="M13.8482 30.8898L14.3244 29.8515C14.7173 30.1395 14.8259 30.5826 14.6384 31.0862C14.4509 31.5884 13.9003 32.2073 13.2932 32.5455C13.1816 31.9946 13.0089 31.4688 12.9822 30.9356C12.9464 30.2606 13.3542 29.8145 13.9836 29.7156C13.9569 29.9164 13.9345 30.1055 13.9048 30.2946C13.8765 30.4836 13.8378 30.6786 13.8036 30.8706L13.8482 30.8898Z" fill="#A7E821"/>
<path d="M11.4256 28.7274L10.4465 29.0672L10.4598 29.1262L11.4554 29.0642C11.4167 29.4733 11.0953 29.7968 10.6429 29.8736C9.96729 29.9917 9.36014 29.7702 8.68604 29.4541C9.1027 29.0996 9.4524 28.7201 9.87651 28.4616C10.4673 28.0968 11.0595 28.2253 11.4256 28.7274Z" fill="#A7E821"/>
<mask id="mask1_13_216" style="mask-type:luminance" maskUnits="userSpaceOnUse" x="5" y="0" width="59" height="57">
<path d="M5.07129 0H63.9999V57H5.07129V0Z" fill="white"/>
</mask>
<g mask="url(#mask1_13_216)">
<path d="M63.8677 26.0881C63.515 21.8683 62.3022 17.9041 60.1281 14.2633C55.8111 7.03786 49.5016 2.47396 41.2322 0.626244C39.8766 0.323461 38.4733 0.236319 37.0924 0.0516947C36.9956 0.0384018 36.9004 0.0177239 36.8037 0H33.6534C33.5462 0.0177239 33.4406 0.0369249 33.3334 0.0516947C31.9525 0.236319 30.5522 0.335276 29.1921 0.626244C22.8974 1.97474 17.6206 5.07642 13.4182 9.9106C9.17271 14.795 6.88849 20.4932 6.4986 26.9255C6.35872 29.2607 6.51497 31.5766 6.96735 33.8718C7.02688 34.1938 7.10426 34.5128 7.17569 34.8392C7.50753 34.7536 7.79027 34.6709 8.07896 34.6074C8.36765 34.5453 8.66081 34.504 8.94355 34.4537C7.31111 26.3436 8.75456 18.8759 13.8602 12.2974C18.9659 5.71891 25.8141 2.19628 34.1831 1.85658C41.8438 1.54789 48.4852 4.14 54.012 9.41581C57.4049 12.6534 59.7174 16.5349 61.0418 20.9718C61.0418 20.9762 61.0418 20.9792 61.0462 20.9821C61.2218 21.5493 61.4093 22.2981 61.4093 22.2981L61.4004 22.3188C61.4004 22.3262 61.4034 22.3321 61.4049 22.3395C61.8319 24.0986 62.07 25.8843 62.1191 27.6936C62.2278 31.5825 61.5403 35.3311 59.9927 38.9113C59.0328 41.1312 57.89 43.2418 56.1325 44.9699C54.9525 46.1294 53.6861 47.1485 52.1563 47.8102C51.4302 48.1248 50.6787 48.3123 49.8751 48.2134C49.259 48.1395 48.8394 47.8102 48.7025 47.2105C48.6236 46.8752 48.5953 46.5355 48.6147 46.1914C48.7099 44.8163 49.0909 43.5092 49.6772 42.2655C50.4406 40.6394 51.5552 39.2451 52.7114 37.8833C53.7129 36.7032 54.7769 35.5718 55.7203 34.3489C57.1831 32.4524 57.7769 30.2975 57.3081 27.9195C57.1697 27.2209 56.8915 26.5504 56.7248 25.8547C56.3557 24.3053 56.3305 22.725 56.3572 21.1416C56.3572 21.0309 56.3572 20.9201 56.3572 20.8093C55.8781 21.8329 55.5849 22.8889 55.5388 24.007C55.4927 25.1915 55.823 26.32 56.0418 27.4646C56.2233 28.4217 56.3855 29.3862 56.1682 30.3551C55.7903 32.0418 54.7665 33.315 53.4555 34.3917C53.4465 34.3991 53.4227 34.3917 53.3766 34.3843C53.6742 33.6163 53.6668 32.8305 53.5388 32.0359C53.326 30.7096 52.8557 29.4792 52.1236 28.3479C51.1534 26.8443 50.1296 25.3747 49.1102 23.9036C48.1504 22.5182 47.1995 21.1313 46.4718 19.61C45.9287 18.4757 45.5284 17.3015 45.4272 16.0431C45.2799 14.1732 45.8587 12.5234 46.9852 11.0405C47.0328 10.9785 47.0775 10.9105 47.1221 10.8455C44.954 12.9414 44.012 15.467 44.39 18.4461C44.6682 20.638 45.5685 22.5847 46.8662 24.36C47.2575 24.8961 47.698 25.3968 48.0507 25.8311C47.515 25.8045 46.8915 25.7203 46.2784 25.7587C45.2427 25.8237 44.2114 25.9684 43.1772 26.0733C41.0299 26.2934 39.1846 25.6863 37.7114 24.0853C37.0775 23.397 36.4569 22.694 35.8171 22.0086C35.0775 21.217 34.2471 20.5302 33.2352 20.1107C30.7233 19.0679 28.1891 19.031 25.6668 20.0546C24.3156 20.6025 23.2322 21.4784 22.6177 22.8372C22.5775 22.9258 22.5507 23.0204 22.518 23.1134C23.3751 21.8595 24.5269 21.0442 25.9897 20.6779C28.2397 20.1151 30.3483 20.5449 32.3379 21.6482C33.4882 22.2878 34.3081 23.2744 35.1028 24.2861C35.7843 25.1531 36.448 26.0349 37.1682 26.8709C38.0209 27.859 39.0879 28.5148 40.4346 28.5916C41.7486 28.6669 43.0671 28.6817 44.3825 28.757C45.0715 28.7954 45.768 28.856 46.4421 28.9977C47.9927 29.3227 48.8557 30.2177 49.1013 31.6785C49.2486 32.5632 49.1608 33.4391 49.0224 34.3164C48.7605 35.9588 48.1474 37.4875 47.4688 38.994C47.2382 39.5095 46.9793 40.0117 46.7322 40.5183C46.7114 40.4075 46.7218 40.2997 46.762 40.1933C47.8602 36.5023 46.3915 32.739 43.0641 30.7554C41.1504 29.6137 39.0373 29.1942 36.8394 29.1838C33.1965 29.1676 29.7694 30.0686 26.5358 31.708C26.3066 31.8262 26.1608 31.8099 25.9956 31.6386C25.5566 31.1837 25.1102 30.7376 24.6757 30.2812C23.7412 29.302 22.7888 28.3493 21.5596 27.7157C19.7918 26.8044 17.9569 26.4263 15.9956 26.9743C14.2069 27.4735 12.8037 28.5458 11.6132 29.9238C11.4941 30.0597 11.3855 30.2074 11.2724 30.3492C11.7486 30.0361 12.1831 29.6845 12.6459 29.3729C13.8349 28.5679 15.1191 28.0067 16.5775 27.9314C18.2159 27.8472 19.695 28.3582 20.9242 29.3832C22.1846 30.4349 23.3275 31.6253 24.5432 32.7759C24.4406 32.8468 24.4049 32.8778 24.3617 32.9C23.2843 33.4376 22.2263 34.0195 21.1236 34.4995C18.576 35.6088 15.9257 35.9219 13.1995 35.2853C11.7799 34.9544 10.3572 34.7624 8.90188 34.9471C7.6742 35.1021 6.53134 35.4773 5.56259 36.2808C5.50902 36.3251 5.45545 36.3694 5.40039 36.4137C6.63551 35.7166 7.94206 35.4463 9.31557 35.6472C10.4614 35.8141 11.5938 36.0445 12.7144 36.3369C15.2129 36.9927 17.6935 37.0798 20.1861 36.3487C21.893 35.848 23.4912 35.0903 25.073 34.3001C25.3245 34.1746 25.4882 34.182 25.7293 34.3504C27.8721 35.8613 30.2084 36.3857 32.7903 35.7062C34.4242 35.2764 36.0641 34.8688 37.7144 34.5054C38.5284 34.3282 39.3691 34.3208 40.1816 34.5867C41.3052 34.9544 41.8706 35.817 42.1504 36.8804C42.8275 39.4652 42.4807 41.9258 41.1281 44.2314C39.9063 46.314 38.1102 47.8072 35.9733 48.8913C31.8319 51.0005 27.4569 51.5558 22.9019 50.6563C20.4748 50.1778 18.2486 49.2133 16.4063 47.5384C14.6802 45.9684 13.2858 44.1206 12.0834 42.1311C10.9867 40.3144 10.1236 38.3929 9.49414 36.3694C9.46438 36.2719 9.38105 36.1301 9.30515 36.1183C8.70991 36.0297 8.11616 36.0445 7.52688 36.1641C7.55515 36.2778 7.57301 36.362 7.59682 36.4447C11.756 50.742 26.4674 59.4991 41.1876 56.3649C48.8974 54.7225 54.9346 50.5574 59.2992 44.0512C61.9674 40.0693 63.4644 35.6634 63.8677 30.8972C63.8989 30.5176 63.9406 30.1395 63.9763 29.7599V27.2224C63.9391 26.8458 63.8989 26.4677 63.8677 26.0881ZM34.1236 32.9708C33.079 33.281 32.0254 33.541 30.9331 33.6192C29.8111 33.6931 28.7159 33.5646 27.643 33.2308C29.3736 31.7597 36.5745 30.8248 38.7962 31.8011C37.1534 31.9887 35.6489 32.5174 34.1236 32.9708Z" fill="#FFDE59"/>
</g>
</svg>
