<svg width="246" height="357" viewBox="0 0 246 357" fill="none" xmlns="http://www.w3.org/2000/svg">
<path d="M60.8245 184.134L41.9561 183.522C36.6243 191.881 33.4137 201.415 32.6029 211.296C44.7742 198.548 66.0847 201.9 81.7533 193.829C86.6209 191.274 90.8512 187.657 94.1307 183.245C97.4102 178.833 99.6548 173.739 100.698 168.342L108.546 157.494C99.9574 155.261 90.9864 154.916 82.2516 156.483C73.5167 158.051 65.2255 161.494 57.9492 166.574C53.8954 169.465 50.2219 172.854 47.0151 176.663C53.995 179.943 60.8245 184.134 60.8245 184.134Z" fill="#043419"/>
<path d="M163.615 116.717C168.997 119.494 173.443 122.223 173.443 122.223L161.8 121.845C159.471 127.8 156.394 133.178 151.303 137.118C160.184 137.356 169.009 135.634 177.15 132.076C185.291 128.518 192.548 123.21 198.406 116.531C204.263 109.851 208.578 101.963 211.043 93.4269C213.508 84.8912 214.062 75.9174 212.667 67.1432L201.066 73.8278C195.59 74.3077 190.292 76.0138 185.564 78.8197C180.837 81.6255 176.801 85.4593 173.757 90.0368C168.622 97.8879 166.54 107.663 163.615 116.717Z" fill="#043419"/>
<path d="M73.7111 232.68C77.8512 232.603 81.9829 232.274 86.083 231.695L75.4517 236.962C76.3632 238.625 77.6259 240.07 79.152 241.196C80.6782 242.323 82.4312 243.104 84.2894 243.484C88.731 244.255 93.3708 242.376 96.6044 239.235C99.7474 235.964 101.922 231.887 102.885 227.455C104.837 219.472 104.142 211.071 100.904 203.518C94.5671 205.433 88.216 207.711 82.9481 211.713C77.5944 215.78 73.4491 221.918 73.2574 228.638C73.2253 230 73.3779 231.359 73.7111 232.68Z" fill="#043419"/>
<path d="M95.1619 93.9902L77.6706 93.4224C72.8294 97.3921 68.6417 102.098 65.2604 107.367C82.0009 101.852 99.2221 114.844 116.846 115.102C122.343 115.14 127.778 113.941 132.749 111.593C137.72 109.245 142.098 105.809 145.56 101.538L157.592 95.664C151.067 89.6494 143.315 85.1209 134.871 82.3906C126.427 79.6603 117.491 78.7931 108.68 79.8487C100.255 80.9563 92.157 83.8255 84.914 88.2696C90.4823 91.1191 95.1619 93.9902 95.1619 93.9902Z" fill="#043419"/>
<path d="M213.118 70.7654C217.302 69.8768 221.523 69.1861 225.781 68.6934C225.162 67.7375 224.56 66.8086 223.972 65.8926C220.208 66.363 216.471 66.9873 212.761 67.7654C212.141 67.8953 211.514 68.0327 210.88 68.1779C204.026 69.7021 197.294 71.73 190.738 74.2449C178.112 79.0644 166.22 85.6195 155.403 93.7212C155.209 93.8581 155.029 93.9937 154.842 94.1371C151.886 96.3778 149.01 98.7395 146.243 101.206C145.681 101.7 145.121 102.208 144.566 102.708C143.064 104.096 141.593 105.511 140.152 106.951C134.904 112.203 130.085 117.869 125.743 123.892C118.319 134.194 112.279 145.427 107.778 157.302C107.458 158.144 107.139 158.987 106.848 159.841C106.663 160.339 106.485 160.844 106.307 161.348C101.69 174.695 99.0472 188.644 98.4608 202.754C98.4404 203.274 98.4263 203.786 98.4123 204.298C98.379 205.514 98.3598 206.729 98.3548 207.943C98.3478 208.149 98.3901 208.354 98.4783 208.541C98.5665 208.728 98.6979 208.891 98.8618 209.017C99.0256 209.143 99.2171 209.227 99.4204 209.264C99.6236 209.301 99.8328 209.289 100.03 209.229C100.398 209.177 100.735 208.994 100.978 208.712C101.221 208.431 101.353 208.071 101.35 207.7C101.354 206.72 101.363 205.733 101.402 204.758C101.418 203.578 101.468 202.403 101.541 201.234C102.903 175.703 111.113 151.01 125.31 129.747C134.096 116.674 145.044 105.193 157.684 95.7943L157.691 95.8007C165.292 90.1257 173.446 85.2322 182.03 81.1948C183.744 80.3918 185.473 79.6231 187.216 78.8885C191.746 76.9705 196.373 75.2931 201.08 73.8637C205.044 72.6458 209.057 71.613 213.118 70.7654Z" fill="#3F3D56"/>
<path d="M242.645 76.8504C231.198 70.1509 221.454 60.8948 214.176 49.8055C213.114 48.1888 210.639 49.8868 211.699 51.4991C219.295 63.0233 229.456 72.6325 241.386 79.5741C243.051 80.5448 244.304 77.8176 242.645 76.8504Z" fill="#CCCCCC"/>
<path d="M176.924 191.864C186.17 182.158 198.27 175.653 211.465 173.292C212.421 173.119 213.383 172.968 214.351 172.84C216.04 173.663 217.727 174.475 219.397 175.267C220.779 175.934 222.151 176.588 223.515 177.231C223.597 177.271 223.678 177.31 223.753 177.346L223.069 178.851L220.309 184.933C220.359 190.578 219.139 196.162 216.738 201.272C214.337 206.381 210.816 210.885 206.438 214.449C200.513 219.196 193.171 222.125 185.935 225.051C175.935 229.104 166.133 233.162 160.53 242.048C159.145 230.336 161.09 218.47 166.142 207.813C168.872 201.961 172.511 196.578 176.924 191.864Z" fill="#043419"/>
<path d="M134.967 197.247C152.998 195.659 163.969 176.413 180.49 169.014C185.5 166.798 190.94 165.719 196.417 165.857C197.914 165.892 199.408 166.014 200.89 166.224C205.444 168.499 209.931 170.704 214.351 172.84C216.04 173.663 217.727 174.475 219.397 175.267C220.779 175.934 222.151 176.588 223.515 177.231C223.239 177.707 222.951 178.186 222.654 178.649C214.846 191.047 202.977 200.351 189.073 204.972C188.415 205.19 187.759 205.39 187.096 205.585C180.291 207.526 173.202 208.279 166.142 207.813C154.995 207.13 144.232 203.482 134.967 197.247Z" fill="#043419"/>
<path d="M215.27 178.776L218.01 176.445L219.398 175.267C220.779 175.934 222.151 176.588 223.515 177.231C223.597 177.271 223.678 177.31 223.753 177.346C225.271 178.056 226.771 178.765 228.268 179.462C228.383 180.116 228.487 180.772 228.58 181.431C231.021 197.641 226.948 214.159 217.249 227.374C207.55 240.59 193.015 249.43 176.819 251.962C183.346 244.664 184.827 235.018 185.935 225.051C186.671 218.29 187.234 211.386 189.073 204.972C189.528 203.361 190.078 201.778 190.721 200.233C192.94 195.044 196.299 190.42 200.549 186.706C204.799 182.991 209.83 180.281 215.27 178.776Z" fill="#043419"/>
<path d="M137.519 355.057C139.897 346.536 139.184 337.449 135.506 329.403C134.077 326.305 132.164 323.008 133.021 319.706C133.66 317.656 135.061 315.93 136.936 314.883C138.797 313.856 140.781 313.071 142.841 312.548L143.222 312.18C147.087 319.338 150.095 327.263 149.725 335.389C149.355 343.516 144.989 351.837 137.519 355.057Z" fill="#043419"/>
</svg>
