<svg width="449" height="334" viewBox="0 0 449 334" fill="none" xmlns="http://www.w3.org/2000/svg">
<g clip-path="url(#clip0_6_1030)">
<path d="M44.3498 309.502C44.5437 317.291 45.7555 325.012 47.9496 332.438C47.9983 332.61 48.0523 332.78 48.1048 332.952H61.5373C61.5232 332.798 61.5086 332.625 61.4945 332.438C60.599 321.35 65.7155 254.673 71.8896 243.133C71.3487 244.069 43.3083 274.272 44.3498 309.502Z" fill="#E6E6E6"/>
<path d="M45.3576 332.438C45.47 332.61 45.5868 332.783 45.7064 332.952H55.7839C55.7075 332.806 55.619 332.633 55.5163 332.438C53.8517 329.203 48.9243 319.529 44.3507 309.502C39.4375 298.725 34.9261 287.54 35.306 283.492C35.1883 284.405 31.7869 312.238 45.3576 332.438Z" fill="#E6E6E6"/>
<path d="M208.699 321.038C208.798 324.996 209.414 328.918 210.528 332.691C210.553 332.779 210.58 332.865 210.607 332.952H217.432C217.425 332.874 217.417 332.786 217.41 332.691C216.955 327.058 219.555 293.182 222.691 287.319C222.416 287.794 208.17 303.139 208.699 321.038Z" fill="#E6E6E6"/>
<path d="M209.212 332.691C209.269 332.778 209.328 332.866 209.389 332.952H214.509C214.47 332.878 214.425 332.79 214.373 332.691C213.527 331.047 211.024 326.133 208.7 321.038C206.204 315.563 203.912 309.88 204.105 307.824C204.045 308.287 202.317 322.428 209.212 332.691Z" fill="#E6E6E6"/>
<path d="M168.297 95.4203L150.925 108.726L161.734 109.972L176.79 96.2532L168.297 95.4203Z" fill="#3F3D56"/>
<path d="M100.333 322.602L110.781 322.601L115.752 279.204L100.331 279.205L100.333 322.602Z" fill="#9F616A"/>
<path d="M97.668 318.928L118.244 318.927H118.245C121.723 318.928 125.058 320.415 127.517 323.063C129.976 325.711 131.358 329.303 131.358 333.048V333.506L97.6686 333.508L97.668 318.928Z" fill="#2F2E41"/>
<path d="M93.7644 167.599C93.7644 167.599 89.2362 173.11 96.7342 194.596L95.4135 312.408L119.712 311.898L125.053 254.43L134.778 170.568L93.7644 167.599Z" fill="#2F2E41"/>
<path d="M69.5047 149.001C68.0691 148.997 66.6915 148.39 65.6643 147.31C64.6372 146.23 64.0413 144.762 64.0031 143.216L62.8628 96.9419L82.3739 57.0817C82.8169 56.1841 83.4652 55.423 84.2574 54.8703C85.0496 54.3175 85.9596 53.9915 86.9015 53.9229L101.771 52.8949L100.487 146.172L69.9883 148.979C69.8264 148.994 69.6652 149.001 69.5047 149.001Z" fill="#043419"/>
<path d="M143.111 183.887L142.845 183.843C111.761 178.738 88.3038 173.844 88.0704 173.795L87.7791 173.734L95.9276 152.392C95.8633 150.162 94.0994 87.5368 97.476 69.544C100.745 52.126 116.153 49.2715 117.909 49.0029L119.672 42.7125L141.945 55.1933L145.83 69.5903L146.619 109.049L143.111 183.887Z" fill="#3F3D56"/>
<path d="M112.502 124.149C98.1515 124.149 86.4766 107.347 86.4766 86.6949C86.4766 66.0425 98.1515 49.2406 112.502 49.2406C126.853 49.2406 138.527 66.0425 138.527 86.6949C138.527 107.347 126.853 124.149 112.502 124.149ZM112.502 52.9075C100.029 52.9075 89.8818 68.0644 89.8818 86.6949C89.8818 105.325 100.029 120.482 112.502 120.482C124.975 120.482 135.122 105.325 135.122 86.6949C135.122 68.0644 124.975 52.9075 112.502 52.9075Z" fill="#043419"/>
<path d="M156.526 102.672C155.523 102.672 154.531 102.895 153.612 103.328C152.693 103.761 151.867 104.393 151.187 105.187H113.748L100.035 108.33L102.286 127.03L151.069 115.733C151.877 116.715 152.9 117.464 154.045 117.911C155.191 118.357 156.422 118.488 157.626 118.291C158.831 118.094 159.97 117.574 160.941 116.781C161.911 115.988 162.681 114.945 163.181 113.749C163.681 112.552 163.895 111.24 163.802 109.932C163.71 108.624 163.315 107.361 162.654 106.26C161.992 105.158 161.084 104.253 160.014 103.626C158.944 102.999 157.745 102.671 156.526 102.672Z" fill="#9F616A"/>
<path d="M153.778 40.0628C160.824 32.4751 160.824 20.1729 153.778 12.5852C146.731 4.99744 135.307 4.99745 128.261 12.5852C121.214 20.1729 121.214 32.475 128.261 40.0628C135.307 47.6505 146.731 47.6505 153.778 40.0628Z" fill="#9F616A"/>
<path d="M124.049 10.791L123.175 8.89513L127.576 6.54028C127.576 6.54028 132.431 -1.96709 141.218 0.423669C150.004 2.81443 153.957 4.24525 153.957 4.24525L158.347 6.62402L156.143 8.98484L160.096 10.4157L157.456 11.8286L160.528 13.7304L158.874 23.4798C158.874 23.4798 156.127 16.0853 150.845 18.911C145.564 21.7368 135.903 17.4503 135.903 17.4503L127.509 34.9419C127.509 34.9419 125.778 28.8102 122.691 30.4452C122.691 30.4452 114.804 16.9195 124.049 10.791Z" fill="#2F2E41"/>
<path d="M280.828 130.408L280.057 114.832L272.274 108.023L267.765 122.446L242.546 158.665C241.353 158.871 240.241 159.44 239.339 160.306C238.438 161.171 237.786 162.296 237.46 163.548C237.134 164.8 237.147 166.127 237.499 167.37C237.851 168.614 238.527 169.723 239.446 170.567C240.365 171.41 241.489 171.952 242.686 172.129C243.882 172.306 245.1 172.11 246.197 171.565C247.293 171.02 248.221 170.147 248.871 169.052C249.522 167.956 249.867 166.683 249.866 165.383C249.866 165.291 249.857 165.202 249.854 165.111L280.828 130.408Z" fill="#FFB7B7"/>
<path d="M295.816 326.71L289.853 326.709L287.015 301.938L295.817 301.938L295.816 326.71Z" fill="#FFB7B7"/>
<path d="M297.337 332.934L278.107 332.934V332.672C278.107 330.534 278.896 328.484 280.3 326.973C281.703 325.461 283.607 324.612 285.592 324.612L297.338 324.612L297.337 332.934Z" fill="#2F2E41"/>
<path d="M323.544 326.71L317.581 326.709L314.743 301.938L323.545 301.938L323.544 326.71Z" fill="#FFB7B7"/>
<path d="M325.065 332.934L305.835 332.934V332.672C305.835 330.534 306.624 328.484 308.028 326.973C309.431 325.461 311.335 324.612 313.32 324.612L325.066 324.612L325.065 332.934Z" fill="#2F2E41"/>
<path d="M317.241 65.3412C319.766 54.1147 321.905 41.4524 317.143 31.1127C313.839 23.9384 301.616 21.5225 294.61 24.1071C287.603 26.6917 282.537 33.7039 280.309 41.3493C278.081 48.9948 278.34 57.2334 279.311 65.1814C292.197 64.9149 305.083 64.6483 317.241 65.3412Z" fill="#2F2E41"/>
<path d="M302.703 63.3553C309.985 59.0687 312.661 49.237 308.68 41.3955C304.7 33.554 295.569 30.6722 288.287 34.9587C281.005 39.2453 278.329 49.077 282.31 56.9185C286.291 64.76 295.421 67.6418 302.703 63.3553Z" fill="#FFB8B8"/>
<path d="M313.865 45.8237C313.913 43.1004 313.452 40.3944 312.509 37.8667C311.566 35.339 310.162 33.0411 308.378 31.1096C306.595 29.178 304.469 27.6523 302.127 26.6229C299.785 25.5935 297.275 25.0816 294.746 25.1175C292.216 25.1534 289.719 25.7364 287.404 26.8319C285.088 27.9274 283 29.513 281.264 31.4945C279.529 33.476 278.181 35.813 277.3 38.3666C276.42 40.9201 276.025 43.6382 276.14 46.3593C289.001 46.3887 301.863 46.4181 313.865 45.8237Z" fill="#2F2E41"/>
<path d="M271.365 146.645C271.365 146.645 268.919 184.891 270.246 196.558C271.573 208.225 286.022 310.221 286.022 310.221L296.921 310.201L300.157 190.004L313.045 311.369L324.316 310.107L330.71 191.39C330.71 191.39 329.707 146.944 321.558 142.487L271.365 146.645Z" fill="#2F2E41"/>
<path d="M288.46 184.557C280.455 184.554 272.566 182.497 265.446 178.556L265.29 178.47L271.314 135.426L270.923 84.1245C270.913 82.7164 271.163 81.3201 271.658 80.0171C272.154 78.7141 272.886 77.5305 273.811 76.5353C274.736 75.5401 275.836 74.7533 277.047 74.2207C278.257 73.6882 279.554 73.4205 280.862 73.4334L313.187 73.7529C314.618 73.767 316.031 74.0982 317.339 74.7257C318.646 75.3532 319.819 76.2637 320.786 77.4006C321.752 78.5374 322.491 79.8762 322.956 81.3337C323.422 82.7913 323.604 84.3363 323.491 85.8727L320.466 126.999L330.469 160.38L328.731 162.869C324.043 169.603 317.963 175.068 310.973 178.833C303.984 182.597 296.276 184.557 288.46 184.557Z" fill="#3F3D56"/>
<path d="M267.676 117.692L271.063 80.4722L272.152 78.8041C272.897 77.6615 273.845 76.6889 274.941 75.9419C276.037 75.1949 277.259 74.6883 278.537 74.4512C279.815 74.2141 281.124 74.2511 282.388 74.5602C283.653 74.8693 284.849 75.4442 285.907 76.2521L286.84 76.965L285.919 114.684L267.676 117.692Z" fill="#3F3D56"/>
<path d="M406.474 299.532C415.231 296.927 418.967 311.247 410.233 313.935C401.476 316.54 397.74 302.22 406.474 299.532Z" fill="#3F3D56"/>
<path d="M357.922 317.962C366.679 315.358 370.416 329.677 361.681 332.365C352.924 334.97 349.188 320.65 357.922 317.962Z" fill="#3F3D56"/>
<path d="M338.272 166.937L338.407 166.896L360.963 232.837L363.937 231.937L341.219 165.523C341.17 164.499 340.797 163.524 340.163 162.76C339.528 161.996 338.67 161.489 337.731 161.323C326.451 159.402 321.879 170.185 321.879 170.185L321.924 170.256L344.984 237.674L347.958 236.773L325.576 171.34C332.39 164.083 338.272 166.937 338.272 166.937Z" fill="#3F3D56"/>
<path d="M364.123 321.672C360.905 321.642 357.779 320.506 355.202 318.43C352.625 316.354 350.731 313.446 349.796 310.13C345.491 294.957 335.334 258.603 333.988 248.737C332.236 235.891 342.11 232.238 342.33 232.16C342.595 232.064 346.565 230.867 352.059 229.211C361.399 226.397 375.513 222.143 376.032 221.892C378.219 221.073 380.539 220.75 382.847 220.942C385.156 221.134 387.403 221.837 389.447 223.008C391.554 224.201 393.413 225.844 394.912 227.835C396.411 229.826 397.519 232.125 398.167 234.592L412.695 290.251C413.592 293.663 413.34 297.306 411.985 300.538C410.631 303.77 408.259 306.383 405.29 307.916C394.08 313.716 377.639 321.452 364.344 321.67C364.27 321.671 364.196 321.672 364.123 321.672Z" fill="#043419"/>
<path d="M335.873 164.656L328.57 118.717L327.755 103.213L315.948 107.377L325.906 167.532C325.504 168.702 325.409 169.969 325.63 171.195C325.852 172.42 326.383 173.555 327.163 174.478C327.944 175.4 328.946 176.074 330.058 176.424C331.17 176.775 332.351 176.79 333.471 176.467C334.59 176.144 335.606 175.496 336.406 174.593C337.207 173.69 337.761 172.568 338.009 171.349C338.257 170.129 338.189 168.86 337.813 167.68C337.436 166.499 336.765 165.453 335.873 164.656Z" fill="#FFB7B7"/>
<path d="M330.568 115.835L312.139 114.756L307.809 77.3128L308.231 76.9192C309.268 75.9499 310.474 75.2109 311.777 74.7445C313.081 74.2782 314.457 74.0936 315.827 74.2016C317.197 74.3095 318.534 74.7077 319.761 75.3734C320.988 76.0391 322.08 76.9591 322.976 78.0807L323.828 79.1483L323.841 79.2158L330.568 115.835Z" fill="#3F3D56"/>
<path d="M405.612 298.735L386.777 230.085L342.485 243.564L342.221 242.556L387.437 228.795L387.574 229.292L406.545 298.438L405.612 298.735Z" fill="#3F3D56"/>
<path d="M70.9104 144.079L68.9048 96.9856L89.4489 53.7408L90.3147 54.2181L69.8889 97.215L71.8824 144.031L70.9104 144.079Z" fill="#3F3D56"/>
<path d="M448.514 334H0.486457C0.357441 334 0.233708 333.945 0.14248 333.847C0.0512512 333.748 0 333.615 0 333.476C0 333.337 0.0512512 333.204 0.14248 333.106C0.233708 333.007 0.357441 332.952 0.486457 332.952H448.514C448.643 332.952 448.766 333.007 448.858 333.106C448.949 333.204 449 333.337 449 333.476C449 333.615 448.949 333.748 448.858 333.847C448.766 333.945 448.643 334 448.514 334Z" fill="#CCCCCC"/>
<path d="M102.526 130.536L98.2449 116.822L97.2092 71.1074L99.0334 64.6213C99.69 62.2869 100.778 60.1192 102.231 58.2482C103.684 56.3771 105.473 54.8413 107.491 53.7327C109.508 52.6241 111.713 51.9656 113.973 51.7965C116.233 51.6275 118.501 51.9514 120.641 52.7489C122.782 53.5464 124.751 54.8011 126.431 56.4377C128.11 58.0743 129.465 60.0593 130.416 62.2735C131.366 64.4878 131.891 66.8858 131.96 69.3238C132.028 71.7619 131.639 74.1898 130.816 76.4621L121.038 103.443L121.535 104.481L142.719 104.297L150.243 118.882L102.526 130.536Z" fill="#3F3D56"/>
<path d="M237.472 228.126L237.457 228.13L213.978 233.191L193.781 241.95C193.52 242.063 193.241 242.12 192.959 242.117C192.678 242.114 192.4 242.051 192.141 241.932C191.882 241.814 191.647 241.641 191.45 241.425C191.253 241.208 191.097 240.952 190.992 240.671C190.967 240.605 190.946 240.538 190.927 240.469L176.172 187.267C176.017 186.716 176.059 186.122 176.291 185.603C176.524 185.085 176.928 184.679 177.425 184.466L197.992 175.547L198.007 175.543L221.485 170.482L241.682 161.723C242.21 161.495 242.8 161.501 243.323 161.741C243.846 161.981 244.259 162.434 244.472 163.002C244.496 163.068 244.518 163.136 244.537 163.204L259.292 216.406C259.447 216.957 259.404 217.551 259.172 218.07C258.94 218.588 258.536 218.995 258.039 219.208L237.472 228.126Z" fill="#E5E5E5"/>
<path d="M212.278 192.39C206.894 190.344 201.329 188.552 195.739 187.063L195.458 186.988L198.296 197.222L212.756 192.572L212.278 192.39ZM198.518 196.78L195.94 187.483C201.26 188.909 206.555 190.61 211.69 192.544L198.518 196.78ZM240.49 206.223C237.984 204.697 235.442 203.236 232.864 201.839C232.153 201.454 231.44 201.074 230.724 200.699C226.358 198.412 221.926 196.327 217.426 194.444L217.374 194.422L199.146 200.284L204.123 218.233L240.828 206.429L240.49 206.223ZM204.345 217.791L199.556 200.523L217.36 194.797C221.699 196.614 225.988 198.626 230.228 200.835C230.964 201.218 231.697 201.607 232.428 202.002C234.981 203.378 237.502 204.82 239.99 206.328L204.345 217.791ZM240.49 206.223C237.984 204.697 235.442 203.236 232.864 201.839C232.153 201.454 231.44 201.074 230.724 200.699C226.358 198.412 221.926 196.327 217.426 194.444L217.374 194.422L199.146 200.284L204.123 218.233L240.828 206.429L240.49 206.223ZM204.345 217.791L199.556 200.523L217.36 194.797C221.699 196.614 225.988 198.626 230.228 200.835C230.964 201.218 231.697 201.607 232.428 202.002C234.981 203.378 237.502 204.82 239.99 206.328L204.345 217.791ZM212.278 192.39C206.894 190.344 201.329 188.552 195.739 187.063L195.458 186.988L198.296 197.222L212.756 192.572L212.278 192.39ZM198.518 196.78L195.94 187.483C201.26 188.909 206.555 190.61 211.69 192.544L198.518 196.78ZM212.278 192.39C206.894 190.344 201.329 188.552 195.739 187.063L195.458 186.988L198.296 197.222L212.756 192.572L212.278 192.39ZM198.518 196.78L195.94 187.483C201.26 188.909 206.555 190.61 211.69 192.544L198.518 196.78ZM240.49 206.223C237.984 204.697 235.442 203.236 232.864 201.839C232.153 201.454 231.44 201.074 230.724 200.699C226.358 198.412 221.926 196.327 217.426 194.444L217.374 194.422L199.146 200.284L204.123 218.233L240.828 206.429L240.49 206.223ZM204.345 217.791L199.556 200.523L217.36 194.797C221.699 196.614 225.988 198.626 230.228 200.835C230.964 201.218 231.697 201.607 232.428 202.002C234.981 203.378 237.502 204.82 239.99 206.328L204.345 217.791ZM189.333 226.325L189.428 226.665L201.907 222.651L203.276 227.585L190.796 231.599L190.89 231.939L203.686 227.824L202.129 222.21L189.333 226.325ZM207.379 229.972L208.335 233.419L208.643 233.286L207.789 230.21L256.451 214.561L256.356 214.221L207.379 229.972ZM254.044 205.885L253.95 205.544L204.973 221.295L206.53 226.909L255.507 211.159L255.413 210.818L206.751 226.467L205.383 221.534L254.044 205.885ZM217.67 190.62C210.212 187.534 202.55 185.051 194.749 183.191L193.794 179.745L193.487 179.878L194.449 183.35L194.773 183.56C202.543 185.418 210.175 187.896 217.605 190.973L217.657 190.995L247.273 181.471L247.179 181.131L217.67 190.62ZM195.042 197.897L182.562 201.911L182.657 202.251L195.453 198.136L190.721 181.077L190.414 181.21L195.042 197.897ZM248.123 184.533L222.087 192.906L222.511 193.098C226.504 194.907 230.487 196.908 234.459 199.099C235.024 199.41 235.588 199.725 236.152 200.045C238.956 201.631 241.739 203.305 244.499 205.067L244.806 205.15L253.101 202.482L253.006 202.142L244.731 204.803C242 203.057 239.243 201.396 236.461 199.819C235.904 199.503 235.347 199.191 234.789 198.882C230.901 196.732 226.991 194.759 223.061 192.964L248.217 184.874L248.123 184.533ZM191.74 235.001L191.834 235.341L204.314 231.328L205.263 234.751L205.57 234.618L204.535 230.886L191.74 235.001ZM183.506 205.313L183.601 205.654L196.08 201.64L200.869 218.909L188.39 222.922L188.484 223.262L201.28 219.147L196.302 201.198L183.506 205.313ZM212.278 192.39C206.894 190.344 201.329 188.552 195.739 187.063L195.458 186.988L198.296 197.222L212.756 192.572L212.278 192.39ZM198.518 196.78L195.94 187.483C201.26 188.909 206.555 190.61 211.69 192.544L198.518 196.78ZM240.49 206.223C237.984 204.697 235.442 203.236 232.864 201.839C232.153 201.454 231.44 201.074 230.724 200.699C226.358 198.412 221.926 196.327 217.426 194.444L217.374 194.422L199.146 200.284L204.123 218.233L240.828 206.429L240.49 206.223ZM204.345 217.791L199.556 200.523L217.36 194.797C221.699 196.614 225.988 198.626 230.228 200.835C230.964 201.218 231.697 201.607 232.428 202.002C234.981 203.378 237.502 204.82 239.99 206.328L204.345 217.791ZM212.278 192.39C206.894 190.344 201.329 188.552 195.739 187.063L195.458 186.988L198.296 197.222L212.756 192.572L212.278 192.39ZM198.518 196.78L195.94 187.483C201.26 188.909 206.555 190.61 211.69 192.544L198.518 196.78ZM240.49 206.223C237.984 204.697 235.442 203.236 232.864 201.839C232.153 201.454 231.44 201.074 230.724 200.699C226.358 198.412 221.926 196.327 217.426 194.444L217.374 194.422L199.146 200.284L204.123 218.233L240.828 206.429L240.49 206.223ZM204.345 217.791L199.556 200.523L217.36 194.797C221.699 196.614 225.988 198.626 230.228 200.835C230.964 201.218 231.697 201.607 232.428 202.002C234.981 203.378 237.502 204.82 239.99 206.328L204.345 217.791Z" fill="white"/>
<path d="M216.47 193.993C217.665 198.301 213.082 210.23 213.082 210.23C213.082 210.23 203.175 202.961 201.98 198.652C201.406 196.583 201.619 194.354 202.572 192.453C203.525 190.553 205.14 189.139 207.061 188.521C208.983 187.903 211.054 188.132 212.818 189.158C214.582 190.185 215.896 191.924 216.47 193.993Z" fill="#043419"/>
<path d="M212.443 194.918C212.638 195.624 212.635 196.376 212.434 197.079C212.233 197.783 211.842 198.406 211.312 198.871C210.782 199.335 210.135 199.62 209.455 199.689C208.774 199.758 208.09 199.608 207.488 199.258C206.887 198.909 206.395 198.374 206.075 197.724C205.756 197.073 205.623 196.335 205.692 195.602C205.762 194.87 206.032 194.177 206.468 193.61C206.904 193.043 207.487 192.627 208.142 192.417C208.577 192.277 209.033 192.23 209.485 192.28C209.936 192.33 210.374 192.475 210.774 192.708C211.173 192.94 211.526 193.255 211.813 193.634C212.099 194.013 212.313 194.45 212.443 194.918Z" fill="white"/>
<path d="M214.06 215.952C215.186 215.952 216.098 214.97 216.098 213.757C216.098 212.545 215.186 211.563 214.06 211.563C212.935 211.563 212.022 212.545 212.022 213.757C212.022 214.97 212.935 215.952 214.06 215.952Z" fill="#043419"/>
<path d="M236.301 184.899L222.135 189.455C222.118 189.461 222.1 189.465 222.081 189.467L225.315 174.817C225.334 174.726 225.376 174.642 225.435 174.574C225.494 174.506 225.569 174.456 225.652 174.429C225.735 174.402 225.823 174.4 225.908 174.422C225.992 174.444 226.069 174.489 226.132 174.554L232.954 181.494L233.28 181.826L236.301 184.899Z" fill="white"/>
<path opacity="0.2" d="M236.3 184.899L231.464 186.455L232.809 181.978L232.905 181.655L232.954 181.494L233.28 181.826L236.3 184.899Z" fill="black"/>
<path d="M244.188 182.363L231.936 186.303L233.28 181.826L233.377 181.504L235.129 175.669C235.163 175.578 235.214 175.495 235.28 175.426C235.346 175.358 235.425 175.305 235.511 175.271C235.597 175.237 235.688 175.223 235.78 175.23C235.871 175.237 235.96 175.264 236.041 175.311C236.062 175.324 236.083 175.34 236.102 175.356L244.188 182.363Z" fill="white"/>
</g>
<defs>
<clipPath id="clip0_6_1030">
<rect width="449" height="334" fill="white"/>
</clipPath>
</defs>
</svg>
